<?xml version="1.0" standalone="no"?>
<!DOCTYPE svg PUBLIC "-//W3C//DTD SVG 20010904//EN"
 "http://www.w3.org/TR/2001/REC-SVG-20010904/DTD/svg10.dtd">
<svg version="1.0" xmlns="http://www.w3.org/2000/svg"
 width="869.000000pt" height="782.000000pt" viewBox="0 0 869.000000 782.000000"
 preserveAspectRatio="xMidYMid meet">

<g transform="translate(0.000000,782.000000) scale(0.100000,-0.100000)"
fill="#000000" stroke="none">
<path d="M5444 7280 c0 -63 1 -89 3 -57 2 31 2 83 0 115 -2 31 -3 5 -3 -58z"/>
<path d="M5171 7364 c0 -11 3 -14 6 -6 3 7 2 16 -1 19 -3 4 -6 -2 -5 -13z"/>
<path d="M5180 7336 c0 -38 75 -286 95 -312 8 -11 0 24 -17 76 -16 52 -39 126
-50 165 -18 64 -28 90 -28 71z"/>
<path d="M3890 7034 c0 -22 192 -314 206 -314 3 0 -26 46 -64 103 -38 56 -84
128 -101 160 -30 53 -41 66 -41 51z"/>
<path d="M6305 6856 c-68 -77 -89 -106 -77 -106 8 0 116 125 136 158 17 29 -6
8 -59 -52z"/>
<path d="M3121 6898 c-1 -19 87 -140 107 -146 7 -2 -9 25 -35 61 -26 36 -53
73 -60 83 -10 17 -12 17 -12 2z"/>
<path d="M6292 6515 c-34 -12 -66 -25 -70 -29 -15 -15 74 7 118 30 56 29 35
28 -48 -1z"/>
<path d="M3506 6213 c-19 -38 -26 -44 -31 -31 -9 24 -22 14 -40 -28 -8 -20
-24 -43 -36 -53 -31 -25 -47 -115 -39 -216 1 -22 -4 -66 -11 -98 -12 -53 -12
-62 4 -89 10 -17 16 -32 15 -33 -2 -1 -19 -6 -38 -11 -31 -9 -35 -14 -38 -46
-2 -26 -9 -37 -23 -41 -10 -3 -19 -10 -19 -17 0 -7 8 -9 20 -5 11 3 20 3 20 0
0 -11 -201 -101 -299 -134 -52 -18 -128 -51 -169 -73 -70 -38 -76 -45 -102
-102 -61 -137 -94 -237 -81 -245 9 -6 9 -14 2 -32 -5 -13 -35 -92 -66 -176
-45 -119 -62 -152 -78 -157 -29 -7 -36 3 -14 19 12 9 17 23 15 42 l-3 28 -29
-42 c-16 -24 -35 -43 -43 -43 -37 0 -71 -30 -81 -73 -11 -41 -13 -43 -42 -39
-23 3 -29 8 -25 21 10 34 8 103 -4 110 -7 5 -72 11 -144 15 -215 12 -215 12
-219 -78 -2 -46 -7 -61 -18 -62 -32 -2 -36 -5 -53 -33 -10 -16 -27 -31 -40
-33 -28 -4 -33 -37 -13 -88 9 -22 13 -46 10 -53 -2 -7 6 -33 20 -57 16 -28 23
-53 20 -69 -4 -20 2 -33 24 -55 18 -17 35 -25 42 -21 9 6 8 10 -4 17 -20 11
-21 28 -1 28 8 0 15 8 15 18 0 14 4 12 20 -8 27 -36 31 -22 8 30 -11 24 -21
57 -22 73 -1 19 -12 37 -31 53 -28 22 -29 25 -16 56 7 18 15 44 18 58 3 14 13
36 22 49 17 23 21 23 78 13 60 -10 105 -28 154 -59 30 -19 61 -14 113 22 44
30 46 30 46 5 0 -35 -22 -68 -49 -73 -16 -4 -32 -16 -39 -32 -8 -16 -23 -28
-42 -31 -26 -6 -30 -11 -30 -38 0 -17 5 -51 11 -75 11 -47 -2 -77 -29 -66 -8
3 -16 -3 -19 -16 -5 -19 -12 -21 -77 -17 -76 3 -104 -13 -39 -23 55 -9 15 -12
-122 -9 -120 2 -174 13 -127 26 26 7 30 34 5 34 -26 0 -137 -47 -141 -59 -2
-6 3 -11 10 -11 9 0 14 -12 14 -35 0 -19 -4 -35 -10 -35 -6 0 -6 -4 1 -11 6
-6 29 -12 51 -12 l40 -2 4 -52 c5 -62 14 -75 34 -49 8 11 15 16 15 10 1 -5 6
16 13 46 l11 55 123 2 c67 1 122 -2 122 -7 0 -4 -17 -6 -37 -3 -28 3 -34 1
-23 -6 8 -6 51 -11 95 -11 59 0 76 3 65 11 -12 8 -11 9 5 5 11 -3 54 -2 96 2
l77 8 6 -60 c3 -32 6 -75 6 -94 l0 -34 -116 4 c-70 3 -118 9 -122 16 -5 7 -45
11 -112 11 -58 0 -129 4 -157 10 -29 6 -59 8 -67 5 -11 -4 -13 -38 -11 -182 3
-204 6 -234 14 -173 9 63 28 64 27 2 -1 -27 1 -48 4 -46 12 7 16 -312 5 -419
-6 -56 -5 -68 6 -64 8 3 17 18 20 34 6 27 7 28 9 4 1 -14 4 -19 7 -12 4 11 1
27 -10 51 -1 2 6 5 16 7 11 1 17 -3 15 -13 -2 -9 3 -17 10 -19 7 -1 8 0 1 3
-6 3 1 13 18 24 30 20 129 28 118 9 -4 -6 4 -6 22 1 15 5 29 6 30 2 2 -5 46
-7 98 -5 71 3 95 1 95 -8 0 -9 4 -9 13 -3 6 6 37 13 67 17 30 3 72 8 93 12 28
4 38 2 43 -10 3 -9 12 -16 19 -16 8 0 19 -16 25 -35 6 -19 20 -37 31 -40 11
-4 17 -11 13 -16 -3 -5 -9 -7 -14 -4 -5 3 -11 1 -14 -3 -3 -5 7 -9 22 -8 21 1
27 -3 25 -18 -1 -13 2 -15 10 -7 6 6 18 11 26 11 13 -1 12 -4 -3 -15 -19 -15
-19 -15 2 -35 25 -24 33 -25 26 -6 -3 8 -13 17 -22 19 -15 4 -14 5 1 6 10 0
25 -6 33 -14 9 -8 12 -15 7 -15 -11 0 20 -20 32 -20 6 0 3 5 -5 10 -8 5 -10
10 -5 10 18 0 55 -31 55 -46 0 -8 5 -12 10 -9 8 5 7 12 -2 22 -11 14 -8 15 22
8 19 -5 47 -8 62 -7 15 1 29 -2 32 -6 3 -5 -7 -9 -22 -10 -15 0 -38 -5 -52
-11 -23 -10 -22 -11 9 -5 26 5 32 3 27 -7 -4 -8 -2 -7 6 2 7 9 19 14 26 11 10
-3 8 -7 -4 -17 -16 -11 -15 -12 11 -9 17 1 40 -4 53 -12 16 -11 27 -12 36 -5
15 13 97 11 115 -3 10 -8 15 -8 18 2 11 31 60 -10 58 -48 0 -8 2 -17 6 -20 4
-3 8 -25 10 -50 3 -38 0 -45 -15 -44 -16 2 -16 1 -1 -16 15 -17 11 -18 -84
-19 -93 -2 -100 0 -115 21 -10 14 -16 17 -16 8 0 -10 -5 -8 -16 6 -8 10 -13
14 -10 7 4 -6 0 -14 -6 -16 -10 -4 -10 -6 0 -6 14 -1 16 -27 2 -36 -6 -3 -14
4 -18 16 -5 14 -26 28 -58 40 -28 11 -42 13 -32 5 10 -7 15 -16 12 -19 -3 -3
5 -3 18 0 20 4 19 2 -7 -15 -16 -10 -38 -29 -49 -40 -10 -12 -23 -19 -29 -15
-6 3 -7 1 -3 -5 3 -6 -2 -16 -13 -21 -26 -14 -29 -14 -27 5 0 9 -6 19 -14 21
-13 4 -13 3 0 -6 13 -10 13 -13 -2 -22 -10 -5 -18 -15 -18 -22 0 -7 4 -6 10 3
9 13 11 13 19 0 5 -8 8 -17 5 -21 -2 -4 0 -10 6 -14 5 -3 10 -11 10 -17 0 -6
-3 -9 -6 -5 -10 9 -44 -26 -44 -46 0 -10 5 -15 10 -12 6 4 17 1 25 -5 9 -8 22
-9 32 -4 10 4 33 8 52 9 29 0 36 4 41 25 3 14 14 26 23 28 23 5 22 -24 0 -37
-10 -5 -14 -13 -10 -18 5 -4 12 -1 17 7 6 11 24 15 59 14 52 -1 58 5 67 54 4
23 13 26 39 12 19 -10 22 -16 13 -22 -8 -5 -1 -8 20 -8 20 0 31 -4 27 -10 -3
-5 -1 -10 5 -10 6 0 8 -5 4 -12 -4 -7 -3 -8 4 -4 8 5 9 13 2 25 -12 23 -4 31
30 31 15 0 47 7 70 15 23 8 61 15 84 15 46 0 90 19 46 20 l-25 0 25 20 c37 29
53 26 48 -10 -3 -17 -1 -33 4 -36 4 -3 8 -29 8 -57 0 -29 5 -70 10 -92 6 -22
13 -132 16 -245 6 -209 0 -260 -30 -260 -8 0 -24 -12 -36 -28 -24 -30 -57 -51
-80 -51 -12 0 -12 2 3 13 16 13 24 56 10 56 -4 0 -21 -5 -39 -12 -31 -11 -33
-15 -28 -45 5 -31 3 -33 -18 -30 -13 2 -17 2 -10 0 28 -10 2 -28 -64 -45 -38
-10 -81 -17 -96 -15 -16 2 -28 -1 -28 -6 0 -5 -14 -7 -30 -3 -19 3 -29 2 -25
-4 3 -6 -5 -10 -19 -10 -13 0 -31 -3 -40 -6 -9 -3 -16 -1 -16 4 0 6 8 13 18
15 15 4 15 5 0 6 -9 0 -23 -7 -30 -17 -7 -10 -26 -22 -43 -26 -16 -4 -38 -9
-49 -13 -11 -3 -16 -1 -13 5 8 11 -58 1 -88 -14 -11 -6 -36 -10 -57 -10 -27 1
-34 -2 -26 -11 11 -14 -22 -12 -60 4 l-23 9 21 27 c18 22 20 32 12 55 -5 15
-15 26 -21 25 -6 -2 -11 2 -11 7 0 6 -14 10 -31 10 -26 0 -31 -3 -26 -20 3
-11 1 -23 -4 -26 -5 -3 -9 -11 -9 -17 0 -7 4 -6 10 3 5 8 12 11 16 8 3 -4 -10
-17 -30 -29 -20 -11 -36 -24 -36 -29 0 -4 19 -11 43 -16 29 -7 42 -14 41 -26
-2 -21 40 -32 68 -17 17 9 23 8 30 -5 5 -9 18 -16 29 -16 12 0 19 -5 17 -12
-2 -6 -62 -21 -134 -34 -132 -23 -448 -90 -564 -119 -75 -19 -527 -34 -500
-16 35 22 401 105 510 115 36 3 154 18 263 33 146 19 197 29 197 39 0 16 -5
17 -85 14 -55 -1 -150 -14 -410 -54 -110 -17 -326 -33 -565 -41 -85 -3 -170
-8 -188 -10 -59 -7 -33 11 40 28 155 36 314 57 446 57 106 0 132 3 132 14 0 8
-6 16 -14 19 -8 3 -13 14 -12 24 3 22 66 38 66 17 0 -9 11 -14 28 -14 21 0 24
2 12 10 -22 14 5 13 32 -1 11 -6 18 -7 15 -2 -3 5 94 10 223 11 126 1 240 7
252 12 18 8 16 9 -14 4 -39 -6 -81 2 -73 15 5 9 -24 7 -66 -4 -16 -4 -30 -2
-33 4 -5 7 -48 11 -113 11 -89 0 -108 3 -120 18 -8 9 -12 12 -9 6 3 -6 -7 -11
-25 -11 -19 0 -25 3 -17 9 8 4 -11 8 -44 8 -54 0 -58 -1 -55 -22 2 -19 -4 -24
-29 -26 l-30 -3 8 78 c11 92 1 844 -11 953 -6 50 -7 -20 -4 -210 8 -494 6
-721 -7 -775 -7 -27 -12 -63 -12 -78 l-1 -28 -116 1 c-64 1 -212 -1 -329 -5
-127 -5 -212 -4 -212 1 0 5 87 19 192 32 279 32 408 60 408 89 0 13 -10 15
-68 9 -50 -5 -77 -3 -102 8 -19 8 -30 16 -25 16 84 6 115 16 115 35 0 12 -15
15 -84 15 -74 0 -84 2 -89 19 -4 16 -18 20 -93 26 -124 11 -373 0 -548 -24
-161 -22 -382 -37 -331 -22 53 15 266 60 385 80 129 22 287 37 498 47 128 6
166 14 148 31 -10 10 -313 5 -411 -6 -49 -6 -173 -14 -275 -17 -305 -11 -412
17 -140 36 161 11 205 15 400 35 74 8 195 17 267 21 73 3 133 10 133 15 0 10
-16 11 -160 10 -116 -2 -248 -11 -570 -43 -213 -20 -342 -20 -364 2 -15 15
-36 12 -36 -4 0 -17 13 -22 74 -31 37 -6 44 -10 36 -20 -24 -29 29 -39 220
-45 l185 -5 -140 -28 c-248 -49 -405 -90 -405 -105 0 -12 22 -13 138 -8 118 6
135 5 120 -7 -38 -30 -20 -47 61 -57 54 -6 55 -7 28 -18 -49 -21 -20 -32 81
-32 83 0 93 -2 77 -13 -35 -26 -7 -37 90 -37 52 0 96 -4 99 -9 9 -13 -65 -24
-108 -15 -34 6 -412 -12 -464 -22 -12 -2 -22 -9 -22 -14 0 -10 144 -9 655 4
l230 6 -75 -19 c-161 -41 -202 -63 -144 -77 25 -6 348 0 519 11 l70 4 -91 -24
c-105 -26 -154 -49 -154 -71 0 -25 46 -34 178 -35 l127 -1 -60 -14 c-80 -20
-247 -72 -264 -83 -8 -5 -11 -16 -8 -25 5 -12 25 -16 94 -18 l88 -3 -55 -14
c-105 -26 -160 -51 -160 -72 0 -14 7 -19 28 -20 65 -3 321 2 367 6 28 3 77 7
110 10 93 8 177 19 490 66 72 10 158 19 192 19 34 0 65 5 68 10 11 18 -130 11
-288 -14 -314 -51 -513 -72 -748 -82 -199 -8 -238 2 -138 34 172 57 259 73
614 112 198 22 428 49 510 60 83 11 185 20 227 20 49 0 86 5 105 15 15 9 40
20 56 25 24 9 26 12 15 29 -10 16 -9 23 4 38 27 31 49 82 50 117 l1 34 81 6
c45 3 140 10 212 15 72 4 140 13 151 20 21 11 23 33 11 121 -4 30 15 160 23
160 5 0 9 -4 9 -10 0 -16 31 -12 51 6 16 15 16 11 -2 -37 -11 -30 -24 -58 -29
-63 -5 -5 -4 -20 1 -35 6 -14 19 -73 30 -131 18 -99 36 -141 46 -112 4 9 8 10
18 2 10 -8 19 -8 34 2 16 10 21 23 21 55 0 39 2 43 24 43 13 0 36 -10 52 -22
20 -17 43 -23 79 -24 27 0 103 -13 168 -29 108 -25 120 -26 134 -12 15 14 13
17 -18 31 -34 14 -33 14 46 15 59 0 90 -5 120 -19 22 -11 49 -19 59 -20 18 0
18 -1 3 -18 -10 -10 -17 -33 -17 -50 0 -29 -2 -32 -24 -26 -20 5 -24 1 -30
-27 -10 -51 -7 -86 11 -123 20 -44 39 -51 71 -30 23 15 26 15 34 0 15 -26 32
-19 80 37 56 65 64 88 44 129 -22 43 -9 49 81 41 72 -6 107 3 201 50 30 15 52
57 52 100 0 43 -15 49 -65 29 -55 -22 -158 -22 -224 0 -30 10 -66 18 -81 18
-18 0 -40 14 -73 49 -41 43 -47 54 -47 92 0 52 5 61 47 82 17 9 47 32 67 51
21 19 43 37 51 40 21 8 19 29 -19 226 -19 96 -37 204 -40 240 -4 36 -11 103
-16 150 -20 178 -21 230 -7 236 8 3 61 13 118 22 l104 18 0 34 c0 19 -4 47 -8
61 l-7 26 48 -8 c91 -15 126 -11 168 19 26 19 58 31 93 36 30 4 66 9 80 12 21
5 27 2 27 -13 1 -10 3 -22 5 -28 2 -5 -3 -84 -10 -175 -10 -117 -12 -245 -7
-440 8 -345 8 -347 -5 -388 -15 -47 -4 -63 91 -142 58 -48 79 -72 80 -90 1
-14 4 -19 7 -12 5 13 29 16 37 4 2 -4 -4 -39 -15 -77 -10 -39 -24 -99 -30
-135 -18 -102 -31 -108 -25 -11 4 56 12 97 25 122 11 21 16 41 12 44 -24 14
-49 -65 -58 -188 -6 -81 -7 -87 -22 -72 -22 22 -18 113 8 189 23 64 26 90 11
81 -18 -11 -50 -142 -50 -204 0 -57 3 -64 32 -91 29 -27 33 -28 49 -14 10 9
15 23 11 36 -3 12 1 26 9 32 8 7 15 33 16 66 3 72 22 160 34 160 20 0 21 -34
3 -108 -20 -86 -24 -166 -9 -181 7 -7 10 12 11 55 1 77 23 176 38 171 13 -5
12 -11 -5 -130 -11 -75 -11 -90 2 -102 12 -13 14 -8 10 33 -2 25 2 76 8 112
12 64 13 66 62 94 27 15 71 48 96 72 l46 45 -2 75 c-1 46 2 74 8 74 18 0 169
150 181 181 13 30 24 36 35 19 11 -17 26 0 16 18 -15 29 -91 262 -113 347 -15
62 -21 121 -24 257 -5 255 -42 473 -111 653 -16 43 -26 88 -26 117 1 42 -3 52
-42 94 -30 32 -49 45 -60 40 -10 -4 -23 1 -33 13 -20 22 -143 41 -277 43 -52
0 -121 8 -164 19 -55 14 -110 19 -214 19 -165 0 -253 18 -267 55 -5 12 -30 40
-57 61 -26 22 -51 44 -55 49 -13 17 -9 64 7 96 9 16 13 33 11 38 -3 5 -33 11
-66 13 -86 6 -94 20 -34 57 27 16 61 39 76 50 27 22 78 29 78 11 0 -5 -13 -10
-28 -10 -40 0 -47 -11 -20 -33 l23 -19 -45 7 c-43 6 -44 5 -27 -12 36 -36 595
-25 842 17 33 5 170 9 305 9 135 -1 254 0 265 0 11 1 67 2 125 2 69 0 97 3 80
9 l-25 8 28 1 c15 1 27 -3 27 -9 0 -5 10 -10 23 -10 18 0 19 2 7 11 -11 7 12
9 80 6 58 -3 79 -2 55 3 -37 7 -38 7 -10 10 112 9 129 9 107 0 -12 -5 -29 -7
-37 -4 -8 4 -15 1 -15 -6 0 -20 73 -8 92 16 16 19 30 21 204 28 103 4 252 14
333 21 80 8 170 15 199 15 28 0 52 4 52 8 0 17 -276 22 -400 7 -124 -14 -484
-19 -400 -5 25 4 92 8 149 9 57 1 108 4 113 7 4 3 119 9 253 13 135 4 250 12
255 17 16 16 -621 6 -701 -12 -13 -3 -186 -7 -384 -10 -198 -2 -432 -11 -520
-19 -150 -14 -373 -30 -545 -40 -41 -3 -137 -10 -212 -16 -136 -12 -188 -9
-260 11 -25 7 -35 15 -32 25 3 7 -4 23 -15 34 -27 27 -27 26 9 41 17 7 33 22
36 34 5 21 8 21 187 18 100 -2 294 1 432 7 221 9 260 9 338 -6 82 -16 88 -16
104 0 19 19 11 36 -9 19 -9 -7 -29 -6 -68 5 -111 30 -156 39 -169 35 -7 -2
-46 -1 -87 3 -64 6 -74 9 -74 26 0 17 -8 19 -72 19 -85 0 -223 44 -471 149
-112 48 -151 69 -159 87 -13 27 -28 32 -28 9 0 -12 -9 -11 -57 6 -74 27 -82
35 -44 44 44 9 40 29 -4 22 -26 -4 -35 -2 -35 9 0 8 9 14 20 14 11 0 20 5 20
11 0 7 -10 9 -25 5 -14 -4 -25 -3 -25 1 0 5 -4 36 -9 70 l-9 62 83 128 c146
225 199 297 203 283 3 -8 42 -51 87 -95 44 -44 107 -109 139 -144 32 -34 63
-64 70 -65 6 -1 25 -11 41 -22 17 -12 47 -27 68 -33 20 -7 37 -17 37 -22 0 -6
10 -20 23 -32 12 -13 27 -35 34 -50 7 -15 18 -24 26 -21 12 4 33 -46 51 -129
9 -38 27 -24 19 16 -8 47 -43 150 -55 165 -8 9 -14 9 -23 2 -10 -8 -17 -5 -29
12 -9 12 -16 28 -16 34 0 18 -32 40 -77 52 -23 7 -52 25 -65 41 -14 15 -37 36
-53 47 -15 10 -73 65 -129 122 -87 89 -100 108 -98 133 3 23 -1 31 -21 38 -14
5 -27 16 -30 23 -4 8 -8 5 -12 -9 -8 -24 -26 -28 -60 -13 -17 7 -15 9 13 9 17
1 32 4 32 9 0 11 -38 42 -51 42 -16 0 -74 52 -71 63 2 5 -4 7 -13 4 -27 -11
-47 4 -41 29 4 13 2 43 -4 66 -8 36 -7 45 8 56 16 12 21 40 23 120 0 34 8 39
27 20 21 -21 27 3 9 35 -10 18 -13 26 -6 20 18 -18 39 -16 39 3 0 8 -11 32
-25 52 -14 20 -25 42 -25 48 0 6 -13 28 -29 48 -16 20 -32 50 -36 65 -3 16
-17 34 -29 41 -13 7 -34 25 -45 41 -19 26 -28 29 -77 29 -30 0 -71 7 -92 16
-29 12 -57 14 -133 9 -119 -9 -139 -4 -139 36 0 36 -24 39 -51 7 l-18 -23 -1
23 c0 36 -18 26 -44 -25z m74 -22 c-6 -12 -7 -21 -3 -22 4 0 61 0 125 1 65 1
162 -4 215 -11 92 -11 101 -14 142 -50 24 -22 54 -60 66 -86 12 -27 29 -54 38
-62 19 -15 24 -77 5 -65 -6 4 -16 0 -22 -8 -11 -15 -30 -24 -78 -38 -27 -8
-28 -7 -27 23 0 18 3 26 6 20 2 -7 11 -13 18 -13 11 0 9 9 -6 35 -30 50 -43
55 -36 14 10 -55 -7 -66 -28 -19 -12 26 -25 40 -37 40 -10 0 -18 -4 -18 -10 0
-5 5 -10 11 -10 14 0 52 -88 45 -106 -11 -28 -28 -13 -58 54 -17 37 -33 62
-35 56 -2 -6 8 -37 22 -69 30 -69 30 -70 6 -94 -20 -20 -20 -19 -40 35 -12 30
-21 61 -21 69 0 8 -5 17 -12 21 -8 5 -9 -3 -5 -29 4 -24 2 -37 -5 -37 -16 0
-48 31 -48 47 0 7 -6 13 -14 13 -8 0 -16 6 -19 13 -2 6 -7 9 -11 6 -3 -3 1
-22 9 -42 18 -43 18 -47 5 -47 -5 0 -10 7 -10 15 0 8 -4 15 -8 15 -5 0 -19 20
-31 45 -12 25 -27 45 -33 45 -7 0 -6 -5 2 -15 27 -32 -28 -49 -62 -18 -10 9
-18 29 -18 45 0 29 -14 38 -23 15 -7 -18 16 -68 42 -91 24 -22 27 -39 8 -55
-19 -15 -28 -2 -16 21 6 11 8 22 5 25 -9 10 -44 -26 -50 -53 -8 -30 -23 -31
-28 -1 -4 25 11 67 24 67 4 0 8 7 8 15 0 8 -4 15 -9 15 -15 0 -34 69 -27 101
6 30 -7 40 -18 13 -11 -29 -6 -69 12 -104 l19 -35 -29 -45 c-31 -48 -38 -41
-12 14 16 32 16 36 0 51 -16 17 -19 35 -16 119 2 62 -15 53 -24 -12 -3 -27
-13 -57 -22 -68 -17 -21 -16 -18 2 74 4 20 2 32 -5 32 -15 0 -27 -28 -35 -82
-7 -46 -26 -77 -26 -41 1 21 14 79 26 108 7 18 6 19 -10 5 -16 -13 -18 -12
-14 10 2 15 11 26 23 29 11 2 22 6 25 10 3 4 17 14 33 24 15 10 27 26 27 36 0
24 11 33 26 20 9 -8 18 -2 35 20 25 34 37 35 19 2z m-104 -278 c-10 -10 -19 5
-10 18 6 11 8 11 12 0 2 -7 1 -15 -2 -18z m-49 -15 c-2 -13 -7 -32 -11 -43 -8
-22 -10 -24 31 33 6 9 14 14 17 11 3 -3 -8 -27 -24 -53 -17 -25 -30 -50 -30
-55 0 -5 12 -30 26 -55 24 -43 29 -47 55 -41 18 4 29 2 29 -4 0 -6 -15 -11
-34 -11 -19 0 -41 -3 -50 -6 -9 -3 -16 -1 -16 6 0 6 -7 18 -15 26 -17 17 -20
81 -5 104 5 9 5 19 0 25 -12 14 7 85 22 85 6 0 8 -10 5 -22z m58 -54 c-11 -17
-14 -35 -10 -52 5 -21 4 -23 -8 -14 -8 7 -17 9 -20 5 -4 -3 -7 -1 -7 6 0 20
54 105 58 92 2 -6 -4 -23 -13 -37z m234 10 c17 -39 2 -50 -24 -18 -16 20 -20
31 -12 36 19 12 23 10 36 -18z m404 -54 c10 -17 16 -39 12 -49 -3 -11 -1 -22
5 -26 18 -11 11 -54 -11 -65 -16 -9 -18 -14 -9 -25 13 -15 19 -99 8 -110 -3
-4 -23 -1 -43 6 -30 11 -38 11 -44 0 -7 -11 -13 -10 -34 3 -25 17 -27 23 -44
174 -4 42 -3 52 10 52 8 0 20 7 28 16 14 17 77 53 94 54 6 0 19 -14 28 -30z
m-563 -92 c0 -16 -19 2 -35 32 -8 16 -12 36 -9 45 5 12 12 5 25 -25 11 -23 19
-46 19 -52z m132 52 c-6 -15 -11 -19 -16 -12 -10 17 4 56 15 45 6 -6 6 -19 1
-33z m155 3 c-3 -10 -5 -4 -5 12 0 17 2 24 5 18 2 -7 2 -21 0 -30z m-244 -14
c-3 -10 -9 -16 -14 -13 -11 6 -12 38 -2 47 10 11 21 -13 16 -34z m300 -46 c9
-29 12 -53 8 -53 -18 0 -41 52 -41 92 1 50 10 39 33 -39z m-53 -25 c8 -43 0
-54 -30 -38 -21 11 -26 51 -14 98 l7 23 15 -22 c8 -12 18 -39 22 -61z m-103
38 c-4 -9 -11 -16 -18 -16 -6 0 -8 7 -5 16 3 9 6 21 6 27 0 8 3 8 11 0 7 -7 9
-19 6 -27z m-117 4 c0 -11 -4 -20 -9 -20 -5 0 -7 9 -4 20 3 11 7 20 9 20 2 0
4 -9 4 -20z m160 -41 c0 -16 -4 -29 -9 -29 -10 0 -22 51 -14 63 9 15 23 -5 23
-34z m-56 -33 c18 -13 58 -29 91 -36 33 -7 74 -20 90 -29 l30 -16 -27 -3 c-15
-2 -57 6 -95 16 -37 11 -88 23 -113 26 -44 6 -308 -8 -362 -20 -25 -5 -28 -3
-28 19 0 29 4 30 170 47 58 7 106 13 108 14 1 2 26 4 54 5 40 0 58 -5 82 -23z
m156 -19 c0 -5 -4 -5 -10 -2 -5 3 -10 14 -10 23 0 15 2 15 10 2 5 -8 10 -19
10 -23z m70 -30 c0 -4 -12 0 -26 9 -18 12 -22 19 -13 25 12 7 38 -16 39 -34z
m-190 -33 c30 -8 70 -18 88 -21 17 -3 32 -11 32 -18 0 -18 33 -25 124 -25 63
0 90 -5 137 -26 33 -15 59 -29 59 -32 0 -3 -6 -13 -14 -21 -20 -22 -90 -166
-110 -224 -9 -26 -17 -71 -17 -100 -2 -73 -12 -112 -29 -112 -8 -1 -14 -6 -13
-12 1 -6 5 -25 8 -42 3 -17 12 -57 20 -87 8 -31 12 -61 9 -65 -7 -11 -48 -2
-95 22 -37 19 -51 17 -43 -6 6 -14 -91 -59 -107 -50 -5 4 -16 1 -24 -5 -9 -8
-35 -10 -72 -6 -32 3 -65 1 -73 -4 -25 -15 16 -50 59 -50 20 0 76 -9 125 -20
97 -22 181 -26 171 -10 -3 6 -19 10 -35 10 -16 0 -67 9 -112 19 -46 11 -96 22
-113 24 -16 3 48 3 144 1 116 -4 181 -10 195 -18 12 -7 49 -23 83 -36 34 -12
66 -27 71 -34 13 -15 52 -231 52 -282 0 -36 -4 -43 -28 -53 -36 -15 -131 -136
-132 -168 0 -23 25 -13 58 22 17 20 32 44 32 55 0 25 15 33 30 15 20 -24 -7
-70 -55 -93 -50 -24 -105 -69 -105 -87 0 -14 80 -39 128 -39 26 0 31 -3 26
-16 -16 -37 -22 -84 -14 -106 5 -12 29 -38 54 -56 49 -36 64 -58 40 -58 -10 0
-14 -6 -11 -14 4 -9 -2 -17 -14 -21 -11 -4 -45 -30 -77 -59 -64 -60 -92 -72
-120 -55 -32 20 -50 5 -54 -43 -3 -41 -6 -45 -72 -89 -88 -59 -173 -89 -252
-89 -34 0 -86 -5 -115 -10 -124 -24 -254 -31 -328 -16 -61 11 -75 11 -86 0
-22 -23 -55 -17 -55 9 -1 20 -2 21 -14 5 -16 -21 -48 -23 -111 -6 -51 14 -45
0 -65 174 -7 55 -16 107 -20 115 -17 27 -22 -1 -12 -63 19 -105 24 -185 14
-192 -5 -3 -12 15 -16 42 -12 96 -28 294 -23 298 12 13 305 1 330 -13 5 -3 0
-14 -9 -24 -13 -15 -15 -22 -6 -31 9 -9 20 -5 45 20 27 27 38 31 67 26 27 -4
44 0 73 20 21 14 46 26 55 26 19 0 82 53 82 68 0 5 8 12 19 15 17 4 19 16 20
117 1 62 4 117 7 122 3 5 1 21 -4 36 -6 15 -13 63 -15 107 -3 53 -2 72 4 57 9
-23 29 -22 29 2 0 37 -144 290 -186 327 -23 20 -70 29 -176 35 -44 2 -88 9
-98 14 -27 14 -50 12 -50 -4 0 -12 -40 -14 -256 -13 -290 2 -261 -9 -231 92
32 111 26 105 119 106 46 0 109 4 141 8 56 7 58 6 52 -13 -13 -48 -18 -146 -6
-146 6 0 11 12 11 28 0 20 3 23 10 12 12 -19 17 -4 23 69 4 49 20 76 39 65 4
-3 8 0 8 5 0 6 -7 11 -16 11 -14 0 -15 8 -9 48 4 26 8 66 9 89 0 24 4 43 9 43
4 0 6 3 6 8 -4 23 13 44 127 161 125 127 127 129 235 176 60 26 109 50 109 52
0 6 -37 -5 -75 -22 -49 -21 -107 -45 -112 -45 -2 0 1 8 6 18 29 50 49 63 136
88 50 14 94 30 100 35 14 14 -34 11 -90 -6 -27 -9 -60 -13 -71 -10 -13 3 -27
-1 -34 -10 -7 -8 -20 -15 -29 -15 -13 1 -11 5 7 19 12 11 22 24 22 30 0 16 38
23 173 31 196 11 220 11 277 -6z m-510 -78 c0 -2 -7 -7 -16 -10 -8 -3 -12 -2
-9 4 6 10 25 14 25 6z m30 -23 c-1 -24 -114 -129 -166 -154 -33 -15 -50 -28
-40 -28 18 -1 18 -3 -5 -28 -43 -47 -96 -128 -134 -204 -38 -75 -41 -107 -4
-45 11 20 22 36 24 36 2 0 -9 -37 -24 -82 -28 -82 -28 -83 -66 -89 -50 -8
-235 -12 -235 -5 0 3 13 38 29 78 31 79 91 286 91 316 0 13 27 32 91 65 49 26
100 47 111 47 22 0 174 56 195 72 7 5 35 11 63 12 28 2 54 6 57 10 8 8 13 8
13 -1z m958 -80 c-1 -16 -21 -50 -43 -78 -22 -27 -55 -85 -74 -128 -19 -42
-36 -75 -38 -73 -11 10 30 133 72 216 34 68 50 90 65 90 15 0 19 -6 18 -27z
m72 -49 c0 -3 -40 -63 -89 -132 -48 -70 -93 -137 -100 -149 -23 -44 -30 -22
-10 30 61 153 131 257 175 257 13 0 24 -3 24 -6z m-282 -577 c55 -14 53 -24
-5 -29 -63 -4 -133 1 -133 11 0 13 64 40 80 34 8 -3 34 -10 58 -16z m-338 -47
c0 -5 -4 -10 -9 -10 -6 0 -13 5 -16 10 -3 6 1 10 9 10 9 0 16 -4 16 -10z
m-1440 -93 c0 -12 -3 -46 -7 -75 -6 -51 -8 -55 -49 -75 l-44 -21 -22 21 c-28
26 -88 51 -148 61 l-45 7 -3 52 -3 52 160 0 c159 0 161 -1 161 -22z m872 -7
c9 0 31 -25 51 -57 l34 -58 6 -245 c3 -135 3 -275 -2 -313 -4 -37 -4 -72 0
-78 9 -16 -6 -65 -19 -62 -6 2 -35 5 -64 7 -208 17 -238 18 -238 8 0 -6 24
-14 53 -19 l52 -9 -53 -8 c-29 -5 -56 -5 -59 -2 -3 3 -6 71 -7 150 -1 139 0
145 19 143 19 -2 20 4 20 135 0 75 3 134 6 132 11 -7 31 -119 27 -159 -2 -30
1 -40 13 -43 12 -2 18 7 22 35 6 46 2 177 -8 221 -7 35 -22 42 -32 15 -16 -44
-43 -31 -43 20 l0 27 -94 0 c-53 0 -98 -4 -101 -10 -3 -5 -17 -10 -31 -10 -14
0 -35 -5 -46 -11 -15 -8 -22 -8 -28 1 -4 7 -13 9 -20 5 -9 -6 -11 -37 -8 -123
6 -124 14 -142 65 -142 13 0 23 -3 23 -6 0 -12 -34 -33 -52 -34 -33 0 -20 -30
12 -30 34 0 31 21 36 -250 2 -178 29 -454 49 -509 19 -54 11 -68 -10 -17 -8
20 -30 60 -49 89 -42 67 -96 228 -96 290 l0 47 35 0 c46 0 49 27 3 32 -18 2
-34 9 -34 16 -1 6 -2 17 -3 23 -2 19 -26 3 -26 -17 0 -24 -30 -28 -105 -16
l-55 10 57 1 c91 2 82 21 -10 21 l-79 0 -7 108 c-4 59 -4 132 -2 162 3 30 11
108 17 174 8 82 8 120 1 125 -11 7 89 177 117 198 23 17 28 16 35 -9 l6 -23
23 28 c13 15 37 31 53 36 22 6 309 7 546 1z m78 -21 c0 -6 -4 -7 -10 -4 -5 3
-10 11 -10 16 0 6 5 7 10 4 6 -3 10 -11 10 -16z m58 -42 c26 -55 35 -87 25
-87 -11 0 -50 77 -58 113 -8 40 9 26 33 -26z m123 33 c5 -8 30 -51 57 -96 47
-78 70 -130 51 -118 -5 3 -9 12 -9 20 0 7 -19 27 -42 44 -24 18 -34 30 -25 30
27 0 20 17 -19 47 -20 15 -31 29 -25 31 17 6 13 19 -11 43 -21 19 -21 21 -4
17 10 -1 23 -10 27 -18z m1060 -48 c90 -38 195 -79 233 -92 l69 -23 -44 -14
c-33 -12 -47 -13 -62 -4 -14 10 -25 8 -50 -8 -32 -20 -70 -26 -205 -36 -53 -3
-74 -1 -76 8 -2 6 -12 57 -21 112 -10 55 -20 106 -22 113 -3 6 -1 12 4 12 5 0
84 -31 174 -68z m-2031 53 c0 -3 -18 -24 -40 -47 -22 -24 -40 -39 -40 -35 0
18 52 87 65 87 8 0 15 -2 15 -5z m920 -70 c10 -12 10 -15 -4 -15 -9 0 -16 7
-16 15 0 8 2 15 4 15 2 0 9 -7 16 -15z m-1458 -27 c-7 -7 -12 -19 -12 -28 0
-9 -7 -25 -15 -36 -14 -18 -14 -18 -15 7 0 27 37 85 48 74 3 -3 0 -11 -6 -17z
m-69 -79 c4 -13 10 -18 17 -14 9 6 10 -1 5 -25 -6 -28 -3 -36 16 -51 19 -14
22 -20 11 -31 -17 -17 -35 5 -51 62 -7 25 -15 53 -17 63 -3 9 -1 17 4 17 5 0
12 -9 15 -21z m1473 -28 c3 -14 12 -49 20 -78 8 -29 17 -87 19 -130 3 -43 8
-109 10 -147 3 -37 2 -73 -2 -79 -3 -5 -7 -38 -9 -71 -3 -52 -7 -64 -30 -83
-42 -33 -51 -22 -45 60 3 40 5 183 4 319 -2 214 0 246 12 241 9 -3 18 -17 21
-32z m-402 -2 c9 -44 8 -269 -1 -269 -24 1 -31 25 -37 133 -5 81 -4 117 3 117
17 0 13 21 -6 36 -16 12 -16 13 8 14 22 0 28 -6 33 -31z m526 -49 c0 -5 -4
-10 -10 -10 -16 0 -12 -32 6 -52 14 -14 14 -20 4 -33 -11 -13 -17 -3 -41 71
-16 48 -29 92 -29 98 1 14 70 -60 70 -74z m-1112 25 c-16 -35 0 -45 24 -15 17
21 20 22 15 5 -10 -38 -17 -90 -18 -152 -3 -111 -19 -97 -71 62 -17 52 -21 76
-13 93 11 25 25 29 25 7 0 -21 13 -19 28 5 17 28 24 25 10 -5z m2432 9 c0 -22
-35 -34 -101 -34 -86 0 -83 10 9 26 81 15 92 16 92 8z m219 0 c58 -12 31 -21
-76 -27 -116 -5 -137 -2 -108 20 20 14 128 18 184 7z m-2223 -26 c-3 -13 -6
-43 -6 -67 0 -60 -6 -49 -13 27 -6 53 -4 62 9 62 12 0 15 -6 10 -22z m-470
-206 c-12 -11 -57 18 -66 43 -6 15 -13 50 -16 80 -6 47 -4 53 12 57 16 3 24
-12 47 -85 16 -49 26 -91 23 -95z m1219 148 c27 -30 12 -34 -15 -5 -13 14 -19
25 -13 25 5 0 18 -9 28 -20z m45 0 c0 -5 -2 -10 -4 -10 -3 0 -8 5 -11 10 -3 6
-1 10 4 10 6 0 11 -4 11 -10z m-1620 -14 c0 -3 -4 -8 -10 -11 -5 -3 -10 -1
-10 4 0 6 5 11 10 11 6 0 10 -2 10 -4z m1577 -63 c62 -80 69 -102 9 -28 -21
25 -34 45 -30 45 4 0 13 -8 21 -17z m53 1 c0 -8 -4 -12 -10 -9 -5 3 -10 10
-10 16 0 5 5 9 10 9 6 0 10 -7 10 -16z m-106 -33 c-6 -6 -24 19 -24 34 1 6 7
1 15 -9 8 -11 12 -22 9 -25z m2249 12 c-7 -2 -19 -2 -25 0 -7 3 -2 5 12 5 14
0 19 -2 13 -5z m-174 -13 c46 0 82 -2 80 -5 -9 -8 -299 -13 -299 -4 0 10 56
18 100 13 19 -2 73 -4 119 -4z m401 -8 c0 -5 -21 -9 -47 -9 -46 -1 -46 -1 -13
7 50 11 60 11 60 2z m-3110 -27 c0 -16 -6 -25 -16 -25 -11 0 -14 5 -10 16 3 9
6 20 6 25 0 5 5 9 10 9 6 0 10 -11 10 -25z m2983 8 c-7 -2 -21 -2 -30 0 -10 3
-4 5 12 5 17 0 24 -2 18 -5z m-3033 -13 c0 -5 -5 -10 -11 -10 -5 0 -7 5 -4 10
3 6 8 10 11 10 2 0 4 -4 4 -10z m-430 -82 c0 -29 -24 -40 -32 -15 -3 8 -37 14
-104 17 l-99 5 75 5 c58 4 75 8 75 20 0 12 -11 14 -55 12 l-55 -3 30 19 c29
18 30 18 97 -7 61 -23 68 -28 68 -53z m2693 55 c-7 -2 -19 -2 -25 0 -7 3 -2 5
12 5 14 0 19 -2 13 -5z m-1475 -28 c-3 -3 -9 2 -12 12 -6 14 -5 15 5 6 7 -7
10 -15 7 -18z m-711 0 c9 -3 13 -88 15 -322 3 -325 9 -373 43 -360 9 4 15 -12
20 -61 4 -37 12 -70 17 -73 17 -11 1 -38 -28 -49 -20 -8 -36 -6 -70 9 -24 11
-46 26 -48 33 -2 7 -11 39 -20 70 -14 49 -21 95 -40 272 -5 47 5 37 28 -26 10
-27 24 -48 32 -48 15 0 19 31 5 46 -15 16 -49 118 -60 180 -8 48 -16 246 -12
327 1 15 8 17 54 12 28 -4 57 -8 64 -10z m-1117 -16 c0 -5 -11 -9 -25 -9 -24
0 -32 10 -19 22 8 8 44 -3 44 -13z m3108 14 c-10 -2 -28 -2 -40 0 -13 2 -5 4
17 4 22 1 32 -1 23 -4z m-1288 -60 c0 -20 -3 -34 -6 -30 -9 9 -11 67 -2 67 4
0 8 -16 8 -37z m-1810 7 c0 -5 -9 -10 -19 -10 -11 0 -23 5 -26 10 -4 6 5 10
19 10 14 0 26 -4 26 -10z m540 0 c0 -5 -4 -10 -9 -10 -6 0 -13 5 -16 10 -3 6
1 10 9 10 9 0 16 -4 16 -10z m1240 -54 c0 -5 -9 -1 -20 9 -11 10 -20 25 -20
34 0 12 6 9 20 -9 11 -14 20 -29 20 -34z m-1740 13 c0 -11 -4 -18 -10 -14 -5
3 -7 12 -3 20 7 21 13 19 13 -6z m310 17 c0 -3 -4 -8 -10 -11 -5 -3 -10 -1
-10 4 0 6 5 11 10 11 6 0 10 -2 10 -4z m43 -13 c-7 -2 -19 -2 -25 0 -7 3 -2 5
12 5 14 0 19 -2 13 -5z m1321 -72 c20 -24 35 -46 32 -48 -10 -10 -86 61 -86
80 0 26 12 19 54 -32z m47 6 l23 -32 -23 20 c-13 11 -27 28 -33 39 -16 29 7
11 33 -27z m59 -22 c0 -8 -2 -15 -4 -15 -2 0 -6 7 -10 15 -3 8 -1 15 4 15 6 0
10 -7 10 -15z m-108 -69 c20 -21 23 -36 8 -36 -20 0 -79 61 -73 76 5 13 9 12
27 -3 11 -10 29 -27 38 -37z m68 -1 c-7 -8 -17 -15 -23 -15 -6 0 -2 7 9 15 25
19 30 19 14 0z m-1556 -19 c12 3 33 1 46 -5 29 -11 25 -12 -82 -15 -59 -1 -65
1 -57 16 7 13 15 15 41 8 17 -5 41 -7 52 -4z m1446 -11 c10 -12 10 -15 -1 -15
-8 0 -25 -3 -39 -7 -25 -6 -25 -6 -6 15 23 26 29 27 46 7z m-1030 -15 c0 -12
-39 -12 -95 -1 -37 8 -35 9 28 10 39 1 67 -3 67 -9z m-429 -48 c2 -31 -3 -57
-11 -60 -5 -2 0 -12 11 -23 20 -20 44 -17 35 6 -2 7 0 17 4 21 5 5 10 23 12
40 l2 32 102 0 101 1 -4 -85 c-5 -72 -3 -84 10 -84 17 0 34 60 23 79 -4 5 -2
12 4 16 5 3 10 21 10 39 0 34 0 34 45 31 25 -1 49 -5 52 -9 4 -4 8 -42 10 -84
1 -42 4 -95 8 -117 4 -28 2 -36 -5 -25 -7 11 -10 3 -10 -32 0 -46 11 -60 39
-50 10 4 7 10 -10 23 l-24 19 23 6 c20 6 32 24 14 24 -4 0 -6 20 -4 45 4 42 6
45 40 55 21 5 42 10 49 10 15 0 36 -101 34 -169 0 -30 4 -60 10 -67 5 -7 12
-24 15 -38 5 -31 -24 -50 -66 -41 -24 5 -30 2 -42 -22 -7 -15 -26 -34 -41 -41
-30 -14 -31 -19 -17 -56 8 -22 7 -26 -8 -27 -13 0 -12 -2 4 -9 42 -16 35 -28
-19 -35 -73 -9 -449 3 -461 15 -13 13 -17 40 -5 40 5 0 9 5 9 11 0 6 -6 9 -13
6 -8 -3 -13 3 -13 14 0 11 6 19 13 19 7 0 13 5 13 10 0 6 -7 10 -16 8 -10 -2
-19 4 -21 12 -4 13 -3 13 6 0 7 -9 11 -10 11 -3 0 6 -4 14 -9 17 -14 9 -12
127 3 120 7 -4 6 -2 -1 7 -15 15 -18 33 -5 25 5 -3 9 1 9 9 0 8 -4 12 -8 9 -4
-2 -7 14 -7 37 0 27 3 37 9 28 5 -8 9 -9 9 -4 0 6 -5 16 -12 23 -9 9 -9 12 1
12 7 0 9 5 6 10 -4 6 -11 8 -16 5 -5 -4 -8 13 -7 40 1 30 6 49 15 52 8 3 12
12 9 19 -3 8 0 14 7 15 9 0 9 2 0 6 -17 6 -17 35 -1 51 10 10 10 15 1 20 -7 4
8 9 32 10 36 1 45 -2 46 -16z m493 -3 c28 -13 25 -29 -5 -29 -10 0 -19 2 -19
4 0 2 -3 11 -6 20 -7 19 -3 20 30 5z m126 2 c0 -5 -6 -11 -14 -14 -11 -5 -13
-14 -6 -39 15 -59 20 -118 11 -118 -28 0 -46 154 -20 171 18 11 29 11 29 0z
m1905 -45 c41 -11 101 -16 195 -16 105 0 152 -5 208 -20 50 -14 102 -20 173
-20 149 0 225 -16 277 -58 62 -50 85 -90 137 -247 77 -230 121 -505 98 -610
-16 -72 27 -279 102 -494 24 -67 33 -106 26 -110 -5 -4 -23 -25 -38 -47 -39
-57 -188 -193 -158 -145 3 5 0 13 -6 16 -6 4 -13 -2 -16 -14 -6 -24 -21 -28
-29 -6 -9 24 -28 18 -75 -24 -52 -45 -88 -59 -100 -40 -6 11 -11 11 -21 1 -17
-17 -73 -15 -87 2 -9 11 -9 20 -2 35 18 33 12 48 -9 21 -11 -14 -20 -35 -20
-48 0 -23 0 -23 -44 8 -54 39 -74 73 -57 94 15 18 16 69 6 396 -7 236 -1 392
22 573 5 42 8 47 30 47 28 0 63 17 63 30 0 5 -14 13 -31 17 l-31 8 49 32 c96
63 189 153 157 153 -4 0 -31 -18 -60 -40 -29 -22 -56 -40 -59 -40 -3 0 1 13
10 30 8 16 15 49 15 75 0 45 4 49 43 45 25 -2 67 27 67 46 0 10 -6 14 -15 10
-8 -3 -15 -1 -15 4 0 6 4 10 9 10 12 0 53 89 48 103 -2 7 -16 -12 -31 -41 -23
-46 -29 -52 -51 -46 -28 7 -30 2 -13 -26 15 -23 12 -26 -27 -34 -27 -6 -32 -3
-42 25 l-12 31 -45 -85 c-24 -47 -63 -109 -85 -137 -23 -29 -41 -56 -41 -61 0
-9 19 -12 85 -10 65 2 20 -15 -57 -22 -41 -4 -68 -2 -68 3 0 16 -33 12 -60 -7
-14 -10 -38 -16 -57 -14 -19 1 -33 -2 -33 -8 0 -6 7 -11 16 -11 24 0 11 -23
-25 -44 -30 -17 -38 -18 -119 -5 l-87 14 -25 47 c-38 73 -57 88 -115 88 -28 1
-98 6 -157 12 -77 8 -128 7 -185 -1 -44 -6 -91 -7 -107 -3 -18 5 -49 3 -80 -5
-28 -7 -80 -13 -117 -13 -78 0 -203 -21 -344 -56 -99 -25 -192 -29 -237 -9
-13 5 -18 3 -18 -9 0 -8 11 -18 25 -22 14 -3 25 -12 25 -19 0 -7 3 -27 6 -44
4 -21 3 -31 -5 -31 -17 0 -85 73 -82 88 3 16 -17 35 -58 56 -41 22 -72 88 -73
156 0 31 -5 53 -13 58 -17 9 -31 62 -16 62 6 0 31 -5 56 -12 40 -11 49 -19 82
-76 20 -35 52 -81 70 -102 34 -39 92 -67 118 -56 24 9 17 26 -11 26 -35 0 -94
37 -94 58 0 9 -11 27 -24 40 -22 20 -44 77 -34 87 1 2 82 6 178 9 97 4 202 11
235 17 100 17 192 27 218 22 26 -5 134 40 208 87 25 17 54 30 64 30 17 0 16
-3 -5 -25 -13 -13 -31 -27 -42 -31 -10 -3 -18 -10 -18 -15 0 -18 75 22 105 56
17 19 54 47 84 61 43 22 57 35 72 70 11 23 17 48 14 56 -7 18 82 70 110 64 11
-2 47 -11 80 -20z m-1562 -206 c5 -53 4 -70 -4 -58 -5 10 -12 64 -14 120 -5
113 7 73 18 -62z m-1111 115 c2 -19 0 -35 -4 -35 -4 0 -8 16 -8 35 0 19 2 35
4 35 2 0 6 -16 8 -35z m2429 -28 c-13 -12 -20 -15 -16 -7 14 26 28 41 33 35 3
-3 -5 -16 -17 -28z m-91 -37 c0 -5 -5 -10 -11 -10 -5 0 -7 5 -4 10 3 6 8 10
11 10 2 0 4 -4 4 -10z m-1470 -155 c6 -7 24 -40 40 -74 17 -34 34 -61 39 -61
5 0 32 -16 61 -35 57 -38 86 -43 129 -21 30 16 71 11 71 -8 0 -17 -85 -39
-124 -32 -19 4 -46 16 -61 27 -30 25 -45 17 -26 -12 11 -19 10 -20 -11 -14
-13 4 -36 15 -53 23 -23 13 -26 17 -12 20 32 7 17 22 -21 22 -46 0 -56 7 -37
26 18 19 11 71 -20 151 -30 73 -32 94 -5 39 11 -21 24 -44 30 -51z m310 -43
c0 -21 -2 -24 -10 -12 -13 20 -13 53 0 45 6 -3 10 -18 10 -33z m2194 -44 c11
-42 6 -81 -15 -114 -29 -47 -69 -69 -69 -38 0 10 6 13 19 9 14 -4 20 0 25 19
3 13 9 31 12 40 3 9 1 16 -5 16 -7 0 -15 -10 -20 -22 -7 -19 -8 -19 -14 -4 -7
18 39 116 53 116 4 0 10 -10 14 -22z m-2613 -93 c-1 -15 -24 -12 -29 3 -3 9 2
13 12 10 10 -1 17 -7 17 -13z m104 -21 c88 -48 125 -64 144 -64 11 0 25 -8 30
-18 5 -10 21 -24 34 -31 16 -9 23 -19 20 -31 -3 -12 2 -20 14 -24 11 -4 22
-22 29 -48 6 -24 15 -52 19 -63 7 -16 6 -18 -6 -9 -18 14 -78 30 -159 44 -36
6 -96 18 -133 26 -58 14 -70 21 -83 46 -13 26 -14 32 -2 40 10 7 10 11 1 15
-8 3 -13 23 -13 48 0 35 5 48 26 64 32 25 40 26 79 5z m2403 -42 c-8 -20 -19
-32 -30 -32 -10 0 -18 3 -18 6 0 7 53 64 57 60 1 -1 -3 -17 -9 -34z m-696 -32
c106 0 106 0 132 -30 23 -28 56 -114 56 -145 0 -7 10 -24 21 -39 12 -15 19
-29 17 -31 -3 -3 -36 -5 -74 -5 -168 1 -202 -1 -293 -15 -53 -9 -148 -18 -212
-22 l-116 -6 -6 44 c-4 24 -9 55 -13 69 -4 17 4 10 25 -22 17 -27 31 -52 31
-58 0 -5 7 -10 15 -10 25 0 17 21 -33 96 -98 148 -122 161 -86 47 14 -42 27
-95 30 -117 l6 -41 -104 3 c-83 3 -124 -2 -208 -22 -89 -20 -117 -23 -185 -17
-44 4 -90 4 -101 0 -30 -10 -32 -6 -26 49 5 50 33 92 63 92 21 0 44 26 30 34
-5 3 -16 3 -24 0 -9 -3 -20 2 -26 15 -16 29 -15 31 28 31 22 0 96 14 165 31
146 35 301 57 376 53 30 -2 63 2 79 10 18 10 39 12 68 7 23 -5 73 -3 115 3 40
7 89 8 108 4 19 -4 83 -8 142 -8z m-1402 -10 c-12 -23 -27 -25 -67 -9 -26 10
-27 12 -8 19 11 5 35 9 53 9 30 1 32 -1 22 -19z m-1080 -16 c0 -2 -9 -4 -20
-4 -11 0 -20 4 -20 9 0 5 9 7 20 4 11 -3 20 -7 20 -9z m1120 1 c0 -8 -7 -15
-16 -15 -14 0 -14 3 -4 15 7 8 14 15 16 15 2 0 4 -7 4 -15z m-2 -52 c-10 -2
-26 -2 -35 0 -10 3 -2 5 17 5 19 0 27 -2 18 -5z m93 -80 c20 -19 54 -40 75
-48 33 -11 39 -18 42 -45 2 -18 -1 -37 -6 -42 -12 -12 -60 7 -90 35 -14 13
-41 23 -69 27 -39 4 -50 10 -64 35 -10 17 -21 43 -25 58 l-6 28 53 -7 c43 -5
62 -14 90 -41z m56 15 c18 -13 33 -27 33 -31 0 -10 -57 22 -72 41 -16 19 3 14
39 -10z m-242 -94 c25 -12 26 -13 5 -8 -14 3 -45 9 -70 14 -58 11 -81 20 -75
30 6 9 90 -13 140 -36z m83 -32 c6 -19 -13 -14 -33 8 -18 20 -18 21 5 12 13
-5 26 -14 28 -20z m222 -78 c0 -6 9 -14 20 -17 12 -3 28 -24 41 -54 11 -26 30
-58 41 -70 12 -13 20 -25 17 -27 -2 -2 -32 -6 -66 -9 -50 -4 -63 -2 -63 9 0 8
-5 14 -11 14 -5 0 -7 5 -4 10 12 19 -6 107 -26 129 -10 11 -19 27 -19 35 0 12
6 12 35 3 19 -6 35 -16 35 -23z m624 30 c97 -14 39 -24 -126 -23 -160 1 -169
2 -128 14 49 14 180 19 254 9z m545 -234 c13 -140 37 -309 56 -407 19 -93 31
-171 27 -174 -115 -95 -137 -107 -228 -123 -11 -3 -40 -10 -63 -17 -33 -10
-47 -10 -61 -1 -11 6 -21 8 -24 4 -3 -5 -29 -9 -58 -10 -43 -1 -56 3 -69 20
-9 11 -22 19 -29 16 -8 -2 -1 -15 19 -37 41 -44 59 -140 36 -194 l-14 -35
-106 43 c-58 24 -127 57 -154 75 -45 28 -51 37 -70 100 -24 78 -27 111 -8 107
9 -1 14 72 19 328 8 377 9 396 36 423 11 11 21 24 23 30 2 6 41 14 85 17 l81
6 7 -33 c8 -39 0 -283 -14 -453 -12 -151 -12 -185 0 -185 16 0 34 41 21 50 -9
5 -9 30 -1 96 6 49 13 187 17 307 l6 217 26 0 c14 0 44 5 65 11 22 6 107 21
190 34 83 12 153 23 156 24 3 1 16 -107 29 -239z m-364 220 c-45 -11 -105 -11
-105 0 0 6 28 10 68 9 52 -1 60 -3 37 -9z m-632 -50 c4 0 7 -4 7 -10 0 -19
-55 -10 -85 15 l-30 25 50 -15 c28 -8 53 -15 58 -15z m67 -10 c-20 -13 -40
-13 -40 0 0 6 12 10 28 10 21 0 24 -2 12 -10z m113 -7 c-13 -2 -35 -2 -50 0
-16 2 -5 4 22 4 28 0 40 -2 28 -4z m-198 -33 c20 0 20 -46 -1 -54 -18 -7 -74
44 -74 68 0 15 3 15 30 1 16 -8 36 -15 45 -15z m65 -5 c0 -8 -7 -15 -15 -15
-26 0 -18 20 13 29 1 1 2 -6 2 -14z m206 -11 c5 -18 1 -29 -12 -39 -13 -9 -21
-10 -25 -3 -4 6 -14 8 -22 5 -12 -5 -11 2 5 29 24 40 45 44 54 8z m-161 6 c-3
-5 -11 -10 -16 -10 -6 0 -7 5 -4 10 3 6 11 10 16 10 6 0 7 -4 4 -10z m45 -15
c-7 -8 -17 -15 -23 -15 -5 0 -2 9 8 20 21 23 35 19 15 -5z m38 -4 c-7 -12 -16
-21 -21 -21 -8 0 -2 14 16 38 16 20 20 6 5 -17z m-95 -65 c-10 -14 -22 -26
-26 -26 -5 0 1 14 13 31 12 16 24 28 27 25 3 -2 -3 -16 -14 -30z m51 1 c-6
-17 -34 -31 -34 -17 0 11 31 42 36 37 3 -2 2 -11 -2 -20z m98 -9 c-9 -9 -15
-9 -24 0 -9 9 -7 12 12 12 19 0 21 -3 12 -12z m-272 -15 c0 -16 -87 -46 -147
-52 -35 -4 -63 -3 -63 0 0 14 57 43 95 50 57 9 115 10 115 2z m-465 -23 c4 -6
-7 -13 -23 -16 -17 -4 -34 -15 -40 -29 -10 -21 -58 -42 -69 -31 -8 7 39 62 62
74 26 14 62 15 70 2z m180 -19 c4 -13 12 -18 22 -14 11 4 14 2 11 -8 -6 -17
-65 -24 -83 -9 -7 6 -11 20 -8 30 7 27 50 27 58 1z m48 12 c-7 -2 -21 -2 -30
0 -10 3 -4 5 12 5 17 0 24 -2 18 -5z m360 -11 c3 -4 -3 -18 -14 -31 l-19 -23
0 24 c0 33 21 51 33 30z m137 0 c0 -17 -169 -253 -174 -243 -4 5 6 25 22 43
16 18 54 72 85 121 53 82 67 98 67 79z m-654 -80 c-13 -12 -17 8 -10 40 l9 33
3 -33 c2 -19 1 -36 -2 -40z m673 36 c0 -13 -13 -34 -31 -47 l-31 -25 13 25
c18 34 42 69 46 69 2 0 4 -10 3 -22z m-749 -2 c0 -8 -7 -16 -15 -20 -17 -6
-18 -4 -9 18 8 20 24 21 24 2z m267 8 c-3 -3 -12 -4 -19 -1 -8 3 -5 6 6 6 11
1 17 -2 13 -5z m-227 -64 c0 -5 -4 -10 -10 -10 -5 0 -10 5 -10 10 0 6 5 10 10
10 6 0 10 -4 10 -10z m534 -5 c-4 -8 -8 -15 -10 -15 -2 0 -4 7 -4 15 0 8 4 15
10 15 5 0 7 -7 4 -15z m182 -98 c5 -86 4 -107 -7 -107 -7 0 -31 -17 -52 -37
l-39 -38 36 66 c35 64 45 99 27 99 -5 0 -16 -10 -25 -22 -10 -13 -3 3 14 36
32 60 33 79 3 55 -14 -12 -15 -12 -7 1 21 34 38 59 40 57 2 -1 6 -51 10 -110z
m-106 -36 c-22 -33 -46 -63 -52 -67 -7 -5 -1 8 13 27 14 18 35 49 48 67 12 17
24 32 27 32 3 0 -13 -27 -36 -59z m-68 -137 c-12 -26 -18 -32 -20 -20 -2 10 4
26 14 37 25 27 26 24 6 -17z m82 -81 c-33 -48 -69 -106 -81 -128 l-22 -40 -1
99 c0 55 3 96 7 93 3 -4 15 0 25 10 21 19 23 8 3 -27 -16 -28 -20 -70 -6 -70
5 0 22 18 38 40 68 98 86 121 90 116 3 -3 -21 -44 -53 -93z m92 45 c-7 -70
-25 -130 -37 -122 -5 3 -19 -5 -30 -18 -19 -21 -19 -20 1 15 15 25 19 42 13
48 -6 6 -23 -10 -46 -46 -21 -30 -40 -55 -42 -55 -8 0 13 37 65 115 26 39 51
80 54 93 14 42 27 23 22 -30z m-31 -190 c-4 -20 -13 -35 -21 -35 -17 0 -17 -1
3 42 20 42 27 39 18 -7z m1855 -58 l-1 -25 -15 28 c-16 30 -44 36 -45 10 0
-12 -2 -13 -6 -5 -3 7 0 19 6 26 18 22 61 -2 61 -34z m-1148 -97 c5 -66 3 -82
-14 -105 -10 -15 -25 -43 -34 -64 -11 -25 -19 -33 -26 -26 -10 10 8 86 34 138
6 13 7 39 3 63 -6 39 5 71 25 71 4 0 10 -35 12 -77z m1060 22 c-3 -36 0 -55 7
-55 6 0 11 10 11 23 1 21 1 21 12 3 9 -17 5 -24 -25 -53 -40 -36 -72 -46 -42
-13 17 18 16 22 -1 19 -14 -2 -22 26 -12 44 8 16 12 17 19 6 11 -19 17 -10 20
31 3 33 7 50 13 50 1 0 0 -25 -2 -55z m-1739 23 c7 -25 3 -33 -12 -23 -13 8
-15 45 -2 45 5 0 11 -10 14 -22z m1551 1 c-6 -11 -24 -2 -24 11 0 5 7 7 15 4
8 -4 12 -10 9 -15z m130 -1 c-3 -4 -14 -8 -24 -8 -10 0 -23 -7 -28 -15 -7 -13
-12 -14 -33 -3 -41 22 -24 39 37 37 29 -1 51 -6 48 -11z m130 -20 c4 -17 2
-28 -4 -28 -5 0 -10 14 -10 32 0 36 4 35 14 -4z m-1374 7 c0 -8 5 -15 10 -15
6 0 10 5 10 10 0 13 37 13 45 0 3 -5 -1 -22 -9 -38 -8 -16 -20 -59 -27 -95 -8
-45 -17 -67 -26 -67 -8 0 -11 5 -8 11 4 6 -2 5 -14 -3 -31 -19 -49 2 -27 33
21 31 22 115 1 123 -8 3 -15 17 -15 31 0 21 5 25 30 25 20 0 30 -5 30 -15z
m91 -18 c-8 -8 -11 -7 -11 4 0 20 13 34 18 19 3 -7 -1 -17 -7 -23z m89 -38 c0
-20 -7 -56 -15 -79 -8 -23 -15 -52 -15 -64 0 -20 -4 -21 -57 -16 -44 4 -58 9
-56 20 7 64 27 149 34 144 5 -3 9 -14 9 -25 0 -35 16 -20 30 29 l13 47 6 -33
c8 -46 25 -45 29 2 4 50 22 29 22 -25z m-892 7 c-14 -12 -31 -31 -37 -43 -12
-23 -31 -31 -31 -13 0 16 85 98 89 87 2 -6 -7 -20 -21 -31z m200 -131 l0 -70
-19 95 c-16 77 -17 100 -7 120 11 24 12 23 19 -25 4 -27 7 -81 7 -120z m-2318
146 c0 -4 -31 -11 -69 -15 -83 -7 -292 -42 -341 -56 -40 -12 -235 -12 -264 -1
-26 10 -14 16 69 34 104 23 164 29 393 37 114 4 208 8 210 8 1 1 2 -2 2 -7z
m2419 -67 l16 -49 95 -27 c52 -14 104 -24 115 -22 17 4 18 3 5 -6 -12 -9 -9
-10 15 -7 17 2 23 2 15 -1 -8 -3 14 -15 50 -28 83 -31 33 -22 -90 16 -52 16
-121 36 -152 45 -58 15 -75 31 -84 78 -2 12 -8 23 -14 25 -5 2 -10 10 -10 19
0 31 24 5 39 -43z m-251 7 c6 -27 6 -43 -1 -50 -20 -20 -27 -11 -27 39 0 60
14 65 28 11z m-2123 19 c-33 -4 -78 -8 -100 -7 l-40 0 45 7 c25 4 70 7 100 7
l55 0 -60 -7z m-157 -17 c-10 -2 -28 -2 -40 0 -13 2 -5 4 17 4 22 1 32 -1 23
-4z m2482 -90 c0 -47 -3 -83 -7 -79 -9 8 -23 148 -16 159 15 25 23 -4 23 -80z
m151 51 l44 -25 -35 7 c-54 10 -82 23 -75 34 9 15 19 13 66 -16z m-2312 6
c-19 -11 -202 -28 -336 -32 -106 -3 -102 5 12 21 146 21 353 28 324 11z m1797
-5 c-11 -8 -27 -15 -35 -15 -10 1 -7 6 9 15 33 19 50 18 26 0z m1124 -10 c28
-27 128 -58 252 -77 61 -10 70 -9 103 11 47 28 65 27 65 -3 0 -28 -50 -86 -75
-86 -9 0 -30 -7 -48 -16 -22 -12 -60 -17 -126 -18 -66 -1 -96 -5 -99 -13 -2
-8 -22 -13 -48 -13 -25 0 -54 -5 -65 -10 -15 -9 -19 -7 -19 7 0 33 15 46 38
34 17 -9 23 -7 36 14 18 27 14 45 -9 45 -11 0 -12 6 -5 26 24 61 6 69 -54 24
-22 -17 -41 -28 -44 -26 -5 5 60 126 67 126 3 0 17 -11 31 -25z m-3455 -10
c-51 -14 -214 -21 -201 -8 7 7 127 19 206 21 l45 1 -50 -14z m2412 -17 c-3 -8
-6 -5 -6 6 -1 11 2 17 5 13 3 -3 4 -12 1 -19z m-206 -4 c-18 -8 -47 -17 -65
-20 -30 -4 -30 -4 9 16 22 11 51 19 65 19 23 -1 22 -2 -9 -15z m183 1 c3 -8
12 -15 21 -15 8 0 15 -4 15 -10 0 -6 -27 -10 -62 -10 -64 0 -66 2 -21 31 35
22 40 22 47 4z m116 -4 c0 -13 -28 -22 -35 -11 -3 4 1 11 7 13 20 8 28 8 28
-2z m-2345 -21 c-16 -4 -75 -8 -130 -8 -58 0 -87 3 -70 7 43 10 238 11 200 1z
m2105 0 c-8 -5 -24 -9 -35 -9 -16 1 -16 2 5 9 35 11 48 11 30 0z m1170 -29 c0
-27 -13 -38 -37 -33 l-26 5 24 18 c27 21 39 24 39 10z m-1604 -35 c18 6 18 6
3 -10 -20 -21 -99 -34 -99 -17 0 16 63 42 71 30 3 -5 14 -7 25 -3z m214 -31
c0 -14 -4 -25 -10 -25 -5 0 -10 11 -10 25 0 14 5 25 10 25 6 0 10 -11 10 -25z
m-250 -35 c0 -5 -8 -13 -17 -19 -31 -16 -418 -77 -538 -85 l-80 -5 60 15 c136
32 498 99 558 103 9 1 17 -3 17 -9z m206 -35 c-4 -14 -11 -25 -16 -25 -5 0 -7
7 -5 15 3 8 7 22 10 31 9 26 18 8 11 -21z m-50 -20 c-5 -18 -12 -25 -24 -23
-24 5 -28 39 -6 55 24 17 38 2 30 -32z m-80 -10 c14 -30 8 -38 -20 -23 -28 14
-27 13 -20 32 9 23 27 20 40 -9z m-92 -7 c-3 -13 -7 -24 -8 -25 -1 -1 -53 -7
-116 -13 -153 -14 -321 -38 -395 -55 -332 -78 -621 -126 -744 -124 l-46 1 32
14 c74 32 441 116 548 125 236 19 450 46 615 78 128 25 123 25 114 -1z m1684
0 c14 -14 16 -54 3 -62 -5 -3 -11 1 -15 9 -9 24 -28 18 -21 -7 6 -22 6 -22 -9
-4 -26 32 -14 76 19 76 6 0 16 -5 23 -12z m-98 -10 c0 -7 -5 -20 -10 -28 -8
-12 -10 -9 -10 13 0 15 5 27 10 27 6 0 10 -6 10 -12z m177 -35 c-3 -10 -5 -4
-5 12 0 17 2 24 5 18 2 -7 2 -21 0 -30z m-1764 -18 c4 -8 3 -16 -1 -19 -6 -3
-237 -34 -387 -50 -27 -3 -122 -15 -210 -26 -163 -20 -202 -23 -194 -16 15 15
538 106 684 119 88 8 103 7 108 -8z m105 6 c10 -6 3 -10 -22 -15 -37 -7 -56
-2 -56 15 0 11 60 12 78 0z m1509 -45 c-9 -26 -27 -15 -27 16 1 31 1 32 15 13
9 -10 14 -24 12 -29z m73 -35 c0 -18 -18 -21 -30 -6 -10 13 -9 15 9 15 11 0
21 -4 21 -9z m-75 -11 c-3 -5 -10 -10 -16 -10 -5 0 -9 5 -9 10 0 6 7 10 16 10
8 0 12 -4 9 -10z"/>
<path d="M3800 6059 c0 -18 69 -81 80 -74 6 4 17 1 25 -5 22 -18 19 2 -6 51
-24 48 -33 47 -19 -1 l9 -33 -26 24 c-15 13 -33 30 -41 37 -17 15 -22 15 -22
1z"/>
<path d="M3750 6042 c0 -4 20 -28 45 -52 53 -52 62 -33 11 23 -32 35 -56 47
-56 29z"/>
<path d="M3650 6009 c0 -16 4 -19 20 -14 14 4 42 -5 85 -29 63 -35 82 -35 48
0 -21 21 -112 64 -135 64 -12 0 -18 -8 -18 -21z"/>
<path d="M3680 5438 c-139 -60 -199 -84 -233 -92 -15 -4 -25 -11 -21 -17 9
-15 55 -2 169 46 55 23 108 45 118 48 20 7 23 27 5 26 -7 0 -24 -5 -38 -11z"/>
<path d="M3795 5314 c-22 -8 -91 -28 -154 -44 -62 -16 -116 -31 -119 -35 -26
-26 265 50 304 80 23 18 20 17 -31 -1z"/>
<path d="M3986 4953 c4 -25 1 -32 -13 -36 -15 -4 -15 -5 -1 -6 11 -1 18 -14
23 -39 3 -20 10 -44 16 -52 16 -25 4 91 -14 130 l-17 35 6 -32z"/>
<path d="M3825 4904 c-110 -19 -141 -22 -375 -34 -292 -15 -360 -21 -360 -31
0 -11 65 -11 155 1 39 5 135 12 215 15 234 10 460 38 460 57 0 4 -3 7 -7 7 -5
-1 -44 -8 -88 -15z"/>
<path d="M3000 4870 c0 -5 7 -7 15 -4 8 4 15 8 15 10 0 2 -7 4 -15 4 -8 0 -15
-4 -15 -10z"/>
<path d="M4045 3839 c-68 -38 -125 -62 -125 -54 0 3 14 11 30 20 31 16 40 35
16 35 -7 0 -38 -11 -67 -24 -67 -29 -139 -46 -229 -55 -39 -3 -70 -10 -70 -16
0 -12 62 -13 142 -2 49 6 57 5 52 -8 -5 -11 1 -15 18 -15 68 0 318 119 318
151 0 14 -10 10 -85 -32z"/>
<path d="M4160 3750 c-77 -55 -147 -80 -226 -80 -48 0 -65 -3 -62 -12 5 -15
76 -22 134 -13 60 9 224 109 224 137 0 14 -13 8 -70 -32z"/>
<path d="M3334 3442 c12 -20 79 -31 138 -23 82 11 80 18 -4 20 -40 1 -88 4
-107 8 -24 4 -32 2 -27 -5z"/>
<path d="M2524 4336 c-8 -33 13 -96 32 -96 11 0 13 6 8 23 -4 12 -8 37 -8 56
-2 41 -23 53 -32 17z"/>
<path d="M1820 3609 c0 -5 5 -7 10 -4 6 3 10 8 10 11 0 2 -4 4 -10 4 -5 0 -10
-5 -10 -11z"/>
<path d="M2431 3574 c0 -11 3 -14 6 -6 3 7 2 16 -1 19 -3 4 -6 -2 -5 -13z"/>
<path d="M2180 3540 c0 -32 1 -33 17 -17 16 16 16 18 0 34 -16 16 -17 15 -17
-17z"/>
<path d="M2254 3331 c4 -5 -13 -16 -36 -23 -26 -9 -44 -22 -46 -32 -3 -16 1
-17 40 -11 50 8 53 11 62 48 5 21 3 27 -9 27 -9 0 -14 -4 -11 -9z"/>
<path d="M4384 3658 c25 -91 19 -109 -42 -125 -37 -9 -44 -30 -9 -25 32 5 69
25 80 42 11 19 -10 130 -25 130 -6 0 -8 -10 -4 -22z"/>
<path d="M4445 3614 c31 -26 85 -58 85 -50 0 6 -99 76 -108 76 -4 -1 7 -12 23
-26z"/>
<path d="M5022 3434 c-20 -9 -103 -18 -220 -24 -291 -16 -584 -48 -601 -66 -7
-8 133 1 234 15 39 5 153 15 255 21 102 6 201 12 220 15 33 4 34 3 16 -10 -19
-15 -19 -15 1 -15 12 0 52 10 89 21 54 17 84 20 137 16 71 -6 84 1 40 23 -38
19 -131 21 -171 4z"/>
<path d="M4825 3350 l-40 -7 35 -1 c19 -1 42 3 50 8 16 11 14 11 -45 0z"/>
<path d="M3060 3243 c0 -69 50 -163 86 -163 11 0 6 11 -14 38 -32 40 -52 91
-52 128 0 13 -4 24 -10 24 -5 0 -10 -12 -10 -27z"/>
<path d="M5300 3223 c0 -12 7 -48 15 -80 47 -180 61 -476 31 -678 l-6 -40 15
45 15 45 -6 -45 c-3 -24 -10 -47 -16 -51 -6 -4 -7 -12 -4 -18 4 -6 3 -11 -1
-11 -5 0 -9 -30 -10 -67 l-1 -68 18 87 c11 47 32 133 48 190 36 130 52 195 51
211 -1 21 -27 -60 -34 -107 -4 -25 -13 -53 -21 -63 -12 -16 -13 -14 -9 17 3
19 7 58 9 85 2 28 9 91 15 140 13 108 31 398 25 404 -10 10 -13 -13 -23 -164
-19 -275 -22 -282 -42 -120 -18 139 -43 266 -60 295 -7 12 -8 10 -9 -7z"/>
<path d="M4537 3129 c25 -25 89 -37 151 -29 83 12 65 26 -32 25 -63 0 -99 4
-107 13 -7 6 -18 12 -23 12 -6 0 -1 -10 11 -21z"/>
<path d="M4790 3074 c-25 -8 -82 -17 -127 -21 -51 -3 -80 -10 -76 -16 9 -15
161 -1 215 21 82 31 73 44 -12 16z"/>
<path d="M5476 2459 c-8 -38 -12 -149 -5 -149 7 0 18 161 13 169 -2 2 -5 -7
-8 -20z"/>
<path d="M5501 2304 c0 -11 3 -14 6 -6 3 7 2 16 -1 19 -3 4 -6 -2 -5 -13z"/>
<path d="M5460 2266 c0 -19 4 -37 9 -40 4 -3 8 12 8 34 0 22 -4 40 -8 40 -5 0
-9 -15 -9 -34z"/>
<path d="M5502 2250 c0 -14 2 -19 5 -12 2 6 2 18 0 25 -3 6 -5 1 -5 -13z"/>
<path d="M5460 2196 c0 -9 5 -16 10 -16 6 0 10 4 10 9 0 6 -4 13 -10 16 -5 3
-10 -1 -10 -9z"/>
<path d="M3850 3053 c0 -11 81 -156 107 -191 45 -61 42 -22 -5 57 -26 43 -55
93 -64 110 -15 28 -38 42 -38 24z"/>
<path d="M3964 2989 c4 -34 13 -72 19 -84 11 -19 11 -19 15 -1 5 26 -18 135
-31 143 -6 4 -7 -16 -3 -58z"/>
<path d="M4099 2648 c-48 -98 -79 -179 -79 -207 1 -19 7 -11 26 34 15 33 44
97 65 143 43 92 43 92 29 92 -5 0 -23 -28 -41 -62z"/>
<path d="M4223 2633 c-54 -117 -73 -164 -72 -181 0 -9 5 -4 11 12 6 15 32 73
59 127 52 107 53 109 41 109 -5 0 -22 -30 -39 -67z"/>
<path d="M4246 2548 c-29 -38 -99 -188 -88 -188 9 0 125 210 119 216 -3 3 -17
-10 -31 -28z"/>
<path d="M4240 2340 c-44 -77 -84 -180 -69 -180 14 0 91 167 87 188 -3 14 -6
12 -18 -8z"/>
<path d="M4037 1734 c-4 -4 -6 -35 -6 -68 l1 -61 9 60 c9 63 8 81 -4 69z"/>
<path d="M4513 6133 c-104 -2 -173 -7 -173 -13 0 -11 24 -12 355 -11 168 1
216 -2 201 -10 -12 -8 -114 -13 -300 -14 l-281 -3 -8 -54 c-9 -62 -2 -460 10
-533 11 -68 27 -63 31 10 2 33 8 62 14 66 6 4 10 55 9 135 -2 147 -7 194 -21
208 -6 6 -10 43 -10 84 l0 74 27 -7 c15 -3 111 -5 213 -4 283 5 785 4 975 -1
181 -5 245 1 245 25 0 8 9 15 20 15 16 0 20 -7 20 -35 0 -22 -7 -41 -19 -51
-17 -15 -19 -35 -20 -253 -1 -130 -6 -274 -12 -321 -10 -87 -5 -211 12 -266 6
-18 19 -34 29 -37 15 -4 20 -14 20 -36 0 -17 -5 -31 -11 -31 -8 0 -9 -29 -4
-98 6 -83 4 -100 -9 -111 -9 -7 -16 -20 -16 -28 0 -12 -22 -13 -147 -8 -100 5
-184 3 -258 -5 -60 -7 -159 -14 -220 -15 -142 -3 -145 -3 -145 -15 0 -6 30
-10 70 -10 l70 0 0 -29 c0 -27 -3 -29 -57 -35 -52 -6 -59 -4 -84 20 -15 14
-31 24 -35 22 -4 -1 -14 16 -21 40 -8 23 -21 42 -29 42 -13 0 -13 -4 -1 -27
12 -24 23 -64 43 -160 2 -13 11 -23 19 -23 18 0 19 14 4 42 -6 11 -8 22 -6 25
3 2 18 -20 34 -49 15 -29 36 -54 46 -56 24 -5 21 12 -8 44 -14 15 -25 32 -24
38 0 7 2 7 5 -1 6 -14 73 -38 82 -29 3 4 -7 18 -23 32 l-30 25 39 -5 c22 -3
42 -10 46 -16 4 -6 14 -8 22 -5 9 4 27 -4 43 -19 15 -14 34 -26 41 -26 16 0
31 -48 37 -122 4 -44 1 -66 -14 -95 -10 -20 -19 -41 -19 -45 0 -19 57 6 88 38
28 29 32 40 32 88 0 29 -7 70 -16 91 -30 74 13 90 66 24 18 -23 36 -57 41 -78
9 -39 -5 -111 -24 -123 -9 -5 -8 -11 1 -20 10 -10 15 -10 22 2 30 47 38 140
15 180 -8 14 -14 28 -15 33 0 10 51 9 112 -4 39 -9 53 -9 56 0 4 13 94 6 128
-11 27 -13 127 -143 122 -158 -2 -6 -34 23 -71 65 -76 86 -90 84 -22 -2 24
-31 43 -59 40 -61 -2 -2 -21 8 -42 22 -37 26 -63 33 -63 19 0 -8 90 -57 124
-68 10 -3 34 -2 53 1 28 5 34 10 30 25 -8 29 7 23 26 -11 19 -32 37 -39 37
-16 0 21 -149 172 -166 168 -7 -1 -21 10 -30 25 -47 77 -60 93 -76 93 -10 0
-18 4 -18 9 0 5 -9 12 -20 16 -22 7 -170 -57 -170 -74 0 -19 -78 -13 -92 7
-10 14 -30 20 -79 24 -82 7 -89 11 -89 51 l0 32 152 0 c255 0 468 21 468 46 0
4 -6 12 -12 16 -16 10 -19 133 -4 130 18 -3 23 81 10 161 -7 42 -13 79 -13 81
-1 2 -8 0 -18 -3 -15 -6 -15 6 -7 146 10 172 11 667 1 716 -6 30 -5 32 14 21
12 -6 18 -16 15 -26 -4 -9 -1 -13 6 -11 22 8 21 46 -1 53 -11 3 -23 15 -26 26
-6 17 -13 20 -43 15 -83 -12 -538 -17 -602 -7 -70 12 -440 19 -717 14z m1346
-433 c1 -163 -8 -280 -20 -280 -11 0 -12 187 -2 376 9 174 21 121 22 -96z
m-48 -373 c-13 -13 -15 50 -3 80 5 13 8 5 10 -26 2 -24 -2 -49 -7 -54z m8 -95
c-1 -57 -1 -57 -10 -17 -11 56 -11 87 1 80 6 -3 9 -32 9 -63z m-172 -444 c-20
-11 -254 -23 -244 -13 8 10 125 22 205 22 33 -1 48 -4 39 -9z m-391 -33 c4 -8
0 -22 -7 -31 -11 -13 -14 -13 -21 0 -9 16 -1 46 13 46 5 0 12 -7 15 -15z m495
-101 l34 -37 -35 6 c-19 3 -50 9 -69 13 -25 5 -32 4 -27 -4 5 -8 -2 -12 -21
-12 -52 0 -56 15 -11 37 85 41 86 41 129 -3z m-396 -48 c14 -18 25 -40 25 -50
0 -26 -37 2 -50 38 -6 16 -18 39 -28 49 -16 19 -16 20 5 8 12 -6 34 -26 48
-45z m15 -91 c10 -12 10 -15 -4 -15 -9 0 -16 7 -16 15 0 8 2 15 4 15 2 0 9 -7
16 -15z m10 -58 c0 -8 -11 -24 -24 -36 l-23 -22 11 36 c10 34 36 49 36 22z"/>
<path d="M2100 5886 c0 -8 4 -17 9 -20 5 -4 7 3 4 14 -6 23 -13 26 -13 6z"/>
<path d="M2114 5649 c3 -56 11 -109 17 -118 7 -11 8 0 2 39 -4 30 -8 83 -8
118 0 34 -4 62 -9 62 -5 0 -6 -43 -2 -101z"/>
<path d="M6835 5502 c-5 -4 -10 -34 -11 -67 -2 -103 -17 -255 -25 -261 -5 -3
-9 46 -9 108 0 62 -4 118 -8 125 -4 6 -23 10 -42 8 -44 -3 -46 -15 -26 -138 8
-50 18 -141 21 -202 3 -60 8 -120 11 -132 2 -13 0 -23 -5 -23 -5 0 -18 40 -30
89 -11 49 -30 110 -41 136 -11 26 -20 58 -20 71 0 13 -4 24 -10 24 -28 0 -4
-138 48 -266 20 -49 20 -52 3 -47 -11 3 -22 0 -25 -6 -4 -6 -2 -11 5 -11 8 0
9 -4 0 -13 -8 -10 -7 -17 1 -25 15 -15 11 -264 -4 -273 -7 -4 -3 -15 11 -30
17 -19 21 -35 21 -96 0 -42 4 -73 10 -73 6 0 10 9 10 19 0 30 11 51 26 51 8 0
14 -8 14 -17 0 -15 4 -13 20 7 17 22 22 23 40 12 11 -7 20 -9 20 -4 0 13 103
33 114 22 6 -6 18 0 33 16 20 22 21 27 9 39 -15 15 -11 55 7 67 7 4 6 30 -1
77 -7 38 -12 107 -12 151 0 73 -2 82 -20 87 -18 5 -18 7 -4 35 16 31 16 94 -1
91 -5 -1 -15 -21 -20 -45 -8 -31 -13 -38 -18 -26 -5 14 21 175 45 278 2 10 -4
14 -19 13 -19 -2 -23 2 -23 23 0 19 4 25 14 21 11 -4 17 7 25 44 15 69 14 99
-4 99 -21 0 -31 -25 -46 -112 -7 -43 -18 -78 -24 -78 -7 0 -18 -46 -28 -113
-19 -126 -22 -217 -7 -217 6 0 10 24 10 53 0 28 7 96 17 149 14 80 21 98 37
102 26 7 28 4 18 -25 -5 -13 -17 -77 -27 -143 -15 -100 -16 -119 -4 -127 24
-16 -10 -29 -77 -29 -73 0 -71 -4 -80 146 -3 55 -10 128 -15 164 -24 168 -24
168 5 168 24 0 26 -3 26 -47 0 -187 16 -408 30 -416 5 -3 11 39 14 92 3 54 13
139 22 188 18 108 35 276 28 287 -6 10 -16 10 -29 0z m135 -596 c0 -3 -16 -10
-36 -16 -21 -7 -75 -42 -120 -77 -46 -35 -84 -59 -83 -51 0 11 27 33 151 126
26 18 88 31 88 18z m-204 -17 c4 -8 9 -8 17 0 14 14 81 15 72 1 -3 -5 -36 -32
-74 -60 -38 -28 -73 -61 -80 -73 -9 -18 -10 -7 -5 53 3 41 8 78 10 82 8 12 52
10 60 -3z m182 -151 c-2 -94 -7 -133 -15 -136 -9 -2 -13 8 -13 32 0 25 -4 36
-15 36 -26 0 -20 74 8 93 22 16 22 16 1 16 -17 1 -20 6 -16 34 5 37 19 57 39
57 11 0 13 -24 11 -132z m-72 49 c-6 -26 -20 -40 -74 -74 -58 -36 -68 -40 -73
-25 -4 9 -4 21 -2 25 12 21 148 125 152 116 1 -5 0 -24 -3 -42z m-8 -89 c-2
-18 -7 -31 -12 -30 -5 2 -12 -1 -15 -6 -7 -11 -86 -52 -101 -52 -5 0 -10 8
-10 18 0 15 111 100 133 101 5 1 7 -14 5 -31z m42 -67 c0 -17 -4 -33 -10 -36
-6 -4 -10 8 -10 29 0 20 5 36 10 36 6 0 10 -13 10 -29z m-40 -22 c0 -10 -4
-19 -10 -19 -5 0 -10 12 -10 26 0 14 4 23 10 19 6 -3 10 -15 10 -26z m-30 9
c0 -25 -16 -34 -59 -36 -49 -1 -48 4 7 29 46 21 52 22 52 7z m110 -48 c0 -5
-7 -10 -15 -10 -8 0 -15 5 -15 10 0 6 7 10 15 10 8 0 15 -4 15 -10z m-40 -4
c0 -3 -4 -8 -10 -11 -5 -3 -10 -1 -10 4 0 6 5 11 10 11 6 0 10 -2 10 -4z m-80
-16 c0 -5 -7 -10 -15 -10 -8 0 -15 5 -15 10 0 6 7 10 15 10 8 0 15 -4 15 -10z
m40 6 c0 -3 -4 -8 -10 -11 -5 -3 -10 -1 -10 4 0 6 5 11 10 11 6 0 10 -2 10 -4z
m-122 -51 c-3 -3 -9 2 -12 12 -6 14 -5 15 5 6 7 -7 10 -15 7 -18z"/>
<path d="M2110 5349 c0 -12 11 -37 25 -55 30 -39 33 -104 10 -199 -8 -33 -14
-85 -13 -115 0 -30 3 -44 5 -30 2 14 13 78 24 142 22 128 20 145 -23 226 -20
38 -28 48 -28 31z"/>
<path d="M2044 5165 c3 -60 6 -117 7 -125 0 -8 -7 -35 -16 -60 -18 -47 -22
-121 -10 -159 8 -25 53 -47 68 -32 5 5 -2 14 -19 23 -42 19 -47 70 -18 157 18
55 21 76 14 102 -6 19 -10 65 -10 104 0 38 -5 77 -11 85 -7 10 -8 -18 -5 -95z"/>
<path d="M5917 4932 c-22 -24 -5 -48 38 -55 154 -25 194 -41 224 -90 25 -40
51 -137 51 -189 0 -51 -47 -105 -106 -120 -54 -15 -59 -33 -6 -23 42 7 101 50
119 86 39 75 -18 272 -90 311 -28 15 -164 50 -195 50 -20 0 -23 4 -18 24 8 29
4 30 -17 6z"/>
<path d="M7178 4762 c-65 -25 -86 -42 -53 -42 9 0 43 11 77 25 34 14 70 25 80
25 10 0 18 5 18 10 0 17 -52 9 -122 -18z"/>
<path d="M6432 4652 c-47 -9 -70 -18 -64 -24 11 -11 195 -12 249 -2 53 10 26
27 -30 20 -45 -6 -49 -5 -37 8 11 14 9 16 -16 15 -16 -1 -62 -9 -102 -17z"/>
<path d="M4700 4591 c8 -5 42 -11 75 -15 36 -3 52 -2 40 3 -29 12 -134 23
-115 12z"/>
<path d="M4870 4566 c0 -14 49 -28 143 -41 56 -7 126 -17 156 -21 37 -5 52 -4
48 3 -8 12 -103 31 -228 44 -47 5 -94 11 -103 15 -9 3 -16 4 -16 0z"/>
<path d="M6472 4555 c-105 -11 -132 -18 -121 -30 5 -4 148 8 237 20 23 4 42
10 42 16 0 10 -7 10 -158 -6z"/>
<path d="M4688 4513 c10 -17 65 -36 136 -45 31 -5 30 21 -1 27 -53 10 -108 24
-127 31 -16 6 -17 4 -8 -13z"/>
<path d="M5750 4518 c0 -9 5 -20 11 -23 17 -11 18 -2 3 19 -12 17 -14 17 -14
4z"/>
<path d="M5713 4463 c-7 -2 -13 -11 -13 -19 0 -12 4 -12 20 -2 31 20 26 35 -7
21z"/>
<path d="M5710 4423 c-40 -22 -53 -24 -117 -18 -43 3 -73 2 -73 -4 0 -23 106
-37 159 -20 41 14 91 46 91 60 0 12 -8 10 -60 -18z"/>
<path d="M6197 4123 c-4 -3 -7 -11 -7 -17 0 -6 5 -5 12 2 6 6 9 14 7 17 -3 3
-9 2 -12 -2z"/>
<path d="M6224 4112 c3 -5 0 -13 -6 -15 -9 -4 -10 -6 -1 -6 17 -1 25 16 12 25
-7 4 -9 3 -5 -4z"/>
<path d="M1670 3820 c0 -49 4 -122 10 -162 26 -197 50 -517 55 -736 3 -134 7
-247 9 -250 2 -4 7 -78 11 -166 3 -87 8 -163 10 -170 2 -6 6 -23 9 -39 5 -23
9 -25 20 -15 10 9 11 18 5 31 -14 25 -9 187 5 187 6 0 4 4 -3 9 -21 13 -29
141 -10 141 11 0 11 2 -1 10 -13 9 -13 11 0 20 11 7 12 10 2 10 -10 0 -13 14
-11 48 1 26 0 52 -3 58 -3 5 -6 59 -8 119 -3 125 -5 154 -13 175 -5 13 -37
336 -68 680 -5 52 -6 104 -3 117 4 14 2 23 -5 23 -7 0 -11 -31 -11 -90z m117
-1522 c-3 -8 -6 -5 -6 6 -1 11 2 17 5 13 3 -3 4 -12 1 -19z"/>
<path d="M2425 3060 c3 -5 11 -10 16 -10 6 0 7 5 4 10 -3 6 -11 10 -16 10 -6
0 -7 -4 -4 -10z"/>
<path d="M1918 3053 c12 -2 30 -2 40 0 9 3 -1 5 -23 4 -22 0 -30 -2 -17 -4z"/>
<path d="M2378 3053 c7 -3 16 -2 19 1 4 3 -2 6 -13 5 -11 0 -14 -3 -6 -6z"/>
<path d="M2020 3040 c0 -5 7 -10 16 -10 8 0 12 5 9 10 -3 6 -10 10 -16 10 -5
0 -9 -4 -9 -10z"/>
<path d="M2075 3040 c-3 -5 0 -7 7 -5 14 6 21 -21 21 -77 0 -19 5 -28 16 -28
19 0 27 45 10 55 -7 5 -6 11 2 21 9 11 8 14 -7 15 -11 0 -14 3 -6 6 6 2 12 9
12 14 0 12 -47 12 -55 -1z"/>
<path d="M1888 3033 c7 -3 16 -2 19 1 4 3 -2 6 -13 5 -11 0 -14 -3 -6 -6z"/>
<path d="M2178 3033 c12 -2 30 -2 40 0 9 3 -1 5 -23 4 -22 0 -30 -2 -17 -4z"/>
<path d="M2493 2978 c3 -9 1 -18 -6 -21 -8 -2 -8 -5 0 -10 15 -9 23 17 11 34
-8 11 -9 11 -5 -3z"/>
<path d="M1811 2954 c0 -11 3 -14 6 -6 3 7 2 16 -1 19 -3 4 -6 -2 -5 -13z"/>
<path d="M2100 2911 c14 -4 25 -11 25 -16 2 -38 18 -106 26 -110 5 -4 9 -19 9
-35 0 -28 36 -162 59 -222 16 -43 41 -36 41 11 0 22 5 42 13 44 9 4 9 8 -2 15
-7 5 -10 15 -7 21 4 6 0 14 -8 17 -9 3 -16 17 -16 30 0 13 -4 24 -8 24 -9 0
-36 89 -33 108 2 10 -4 12 -18 7 -12 -4 -21 -2 -21 4 0 6 6 11 14 11 10 0 12
9 6 38 -10 56 -17 62 -63 61 -34 -1 -37 -2 -17 -8z m60 -23 c0 -18 -2 -20 -9
-8 -6 8 -7 18 -5 22 9 14 14 9 14 -14z"/>
<path d="M1805 2761 c-3 -5 -1 -12 5 -16 5 -3 10 1 10 9 0 18 -6 21 -15 7z"/>
<path d="M2757 2713 c-13 -13 -13 -17 4 -34 21 -21 79 -16 79 6 0 30 -60 50
-83 28z"/>
<path d="M1811 2684 c0 -11 3 -14 6 -6 3 7 2 16 -1 19 -3 4 -6 -2 -5 -13z"/>
<path d="M2795 2640 c-3 -6 1 -7 9 -4 18 7 21 14 7 14 -6 0 -13 -4 -16 -10z"/>
<path d="M2930 2609 c0 -15 18 -19 23 -6 3 8 -1 14 -9 14 -8 0 -14 -4 -14 -8z"/>
<path d="M1795 2590 c-3 -5 -1 -10 4 -10 6 0 11 5 11 10 0 6 -2 10 -4 10 -3 0
-8 -4 -11 -10z"/>
<path d="M2170 2550 c0 -5 5 -10 11 -10 5 0 7 5 4 10 -3 6 -8 10 -11 10 -2 0
-4 -4 -4 -10z"/>
<path d="M2651 2434 c0 -11 3 -14 6 -6 3 7 2 16 -1 19 -3 4 -6 -2 -5 -13z"/>
<path d="M2966 2414 c-5 -14 -4 -15 9 -4 17 14 19 20 6 20 -5 0 -12 -7 -15
-16z"/>
<path d="M2985 2400 c-3 -5 -1 -10 4 -10 6 0 11 5 11 10 0 6 -2 10 -4 10 -3 0
-8 -4 -11 -10z"/>
<path d="M3016 2393 c-6 -14 -5 -15 5 -6 7 7 10 15 7 18 -3 3 -9 -2 -12 -12z"/>
<path d="M3101 2391 c-11 -7 -9 -10 9 -13 13 -1 25 -10 27 -18 4 -13 3 -13 -7
0 -10 13 -11 12 -6 -3 3 -10 6 -21 6 -23 0 -2 10 -3 23 -3 17 1 18 2 4 6 -9 2
-15 9 -11 14 8 14 -5 49 -19 49 -7 0 -18 -4 -26 -9z"/>
<path d="M2883 2323 c-19 -4 -23 -11 -23 -39 0 -21 -4 -33 -10 -29 -14 9 -12
-8 5 -41 8 -16 12 -37 9 -47 -8 -27 17 -158 30 -154 10 3 23 83 29 172 2 17 6
35 10 42 4 6 2 15 -4 19 -8 5 -8 9 1 14 9 6 10 16 3 36 -10 30 -16 33 -50 27z"/>
<path d="M3130 2316 c0 -2 7 -7 16 -10 8 -3 12 -2 9 4 -6 10 -25 14 -25 6z"/>
<path d="M1772 2230 c0 -19 2 -27 5 -17 2 9 2 25 0 35 -3 9 -5 1 -5 -18z"/>
<path d="M1791 2198 c0 -10 -5 -18 -11 -18 -5 0 -9 -15 -9 -32 1 -22 3 -26 6
-13 3 11 10 23 15 26 5 4 8 17 5 30 -2 14 -5 17 -6 7z"/>
<path d="M1816 2135 c8 -37 14 -45 14 -19 0 10 -5 26 -10 34 -8 11 -9 7 -4
-15z"/>
<path d="M2124 2074 c14 -163 20 -251 18 -271 -1 -12 2 -24 8 -28 8 -5 8 -11
1 -19 -8 -10 -4 -13 18 -13 25 0 30 5 34 31 3 17 8 48 11 69 5 30 3 37 -10 37
-26 0 -48 28 -34 44 8 11 8 20 -2 37 -10 17 -10 23 0 26 17 6 15 32 -3 39 -9
4 -13 14 -10 23 7 22 -8 74 -24 79 -9 3 -11 -10 -7 -54z"/>
<path d="M2547 2110 c-10 -36 -4 -200 8 -200 6 0 10 20 10 43 0 23 4 48 8 55
5 7 4 18 -1 25 -6 7 -12 33 -14 57 -3 38 -5 41 -11 20z"/>
<path d="M3192 2118 c3 -7 -3 -21 -13 -31 -10 -11 -15 -26 -11 -36 5 -14 7
-13 10 4 2 11 9 25 16 30 15 12 17 45 4 45 -6 0 -8 -6 -6 -12z"/>
<path d="M3132 2080 c0 -19 2 -27 5 -17 2 9 2 25 0 35 -3 9 -5 1 -5 -18z"/>
<path d="M1780 2051 c0 -23 4 -40 9 -37 9 6 7 63 -3 73 -3 4 -6 -13 -6 -36z"/>
<path d="M1812 2040 c0 -14 2 -19 5 -12 2 6 2 18 0 25 -3 6 -5 1 -5 -13z"/>
<path d="M3171 2014 c0 -11 3 -14 6 -6 3 7 2 16 -1 19 -3 4 -6 -2 -5 -13z"/>
<path d="M1780 1983 c0 -11 3 -14 8 -7 4 6 14 14 22 17 10 4 8 6 -7 6 -16 1
-23 -5 -23 -16z"/>
<path d="M3143 1975 c-3 -9 -3 -18 -1 -21 3 -3 8 4 11 16 6 23 -1 27 -10 5z"/>
<path d="M3177 1984 c-3 -3 -3 -13 0 -22 4 -10 2 -13 -5 -8 -7 4 -12 1 -12 -8
0 -10 6 -13 15 -10 8 4 15 17 15 30 0 25 -2 28 -13 18z"/>
<path d="M1780 1950 c0 -5 5 -10 10 -10 6 0 10 5 10 10 0 6 -4 10 -10 10 -5 0
-10 -4 -10 -10z"/>
<path d="M2968 1905 c-5 -23 -3 -25 35 -25 l40 0 -23 25 c-13 14 -29 25 -36
25 -6 0 -14 -11 -16 -25z"/>
<path d="M1779 1893 c0 -16 -3 -48 -5 -72 -4 -33 -2 -42 8 -38 8 2 12 17 10
41 -2 22 2 36 9 36 7 0 8 7 4 18 -4 9 -8 23 -8 30 -1 25 -17 11 -18 -15z"/>
<path d="M2380 1886 c0 -38 17 -57 31 -35 5 8 9 26 9 42 0 20 -5 27 -20 27
-16 0 -20 -7 -20 -34z"/>
<path d="M3183 1895 c-6 -14 -7 -25 -2 -25 11 0 22 25 17 39 -1 6 -8 -1 -15
-14z"/>
<path d="M1805 1840 c-3 -5 -1 -10 4 -10 6 0 11 5 11 10 0 6 -2 10 -4 10 -3 0
-8 -4 -11 -10z"/>
<path d="M3164 1822 c-6 -4 -7 -17 -3 -32 7 -24 14 -11 10 19 -2 8 2 10 10 5
8 -4 10 -3 5 4 -8 14 -8 14 -22 4z"/>
<path d="M2017 1813 c-3 -5 -8 -23 -12 -40 -6 -32 -5 -33 24 -33 37 0 50 30
24 59 -18 22 -29 26 -36 14z"/>
<path d="M3130 1800 c0 -6 -4 -8 -10 -5 -6 3 -7 -1 -3 -10 5 -13 7 -14 14 -3
6 9 9 6 10 -12 1 -14 1 -29 0 -33 -1 -5 2 -6 7 -3 11 6 3 64 -9 72 -5 3 -9 0
-9 -6z"/>
<path d="M3066 1791 c-5 -7 -27 -22 -50 -32 -64 -29 -93 -55 -79 -70 10 -10
21 -6 52 14 22 15 45 27 50 27 5 0 14 7 21 15 8 10 17 12 24 6 8 -7 12 -4 12
9 0 10 -3 17 -7 14 -4 -2 -9 4 -11 13 -3 14 -5 15 -12 4z"/>
<path d="M1771 1754 c0 -11 3 -14 6 -6 3 7 2 16 -1 19 -3 4 -6 -2 -5 -13z"/>
<path d="M3065 1720 c-3 -6 1 -7 9 -4 18 7 21 14 7 14 -6 0 -13 -4 -16 -10z"/>
<path d="M3097 1716 c-17 -13 -16 -14 3 -19 12 -3 18 -1 14 5 -4 6 0 14 7 19
8 5 10 9 4 9 -5 -1 -18 -7 -28 -14z"/>
<path d="M1760 1709 c0 -5 5 -7 10 -4 6 3 10 8 10 11 0 2 -4 4 -10 4 -5 0 -10
-5 -10 -11z"/>
<path d="M5490 1703 c0 -31 48 -91 93 -117 23 -14 68 -34 99 -46 31 -11 67
-29 80 -40 18 -14 44 -19 104 -21 43 -1 89 1 102 6 21 7 22 5 22 -42 l0 -49
-42 -12 c-97 -27 -177 -40 -254 -41 -45 0 -93 -5 -108 -11 -39 -15 -92 -12
-106 5 -21 25 -79 30 -117 10 -28 -15 -39 -16 -72 -7 -21 7 -58 12 -83 12 -24
0 -49 5 -55 11 -7 7 -12 6 -16 -5 -8 -20 -3 -22 73 -30 36 -4 79 -12 97 -18
27 -10 35 -9 50 4 33 29 61 31 103 7 39 -22 43 -22 160 -10 66 7 124 10 128 7
10 -6 167 27 223 46 36 12 37 13 42 78 3 36 2 69 -3 74 -5 5 -23 3 -42 -3 -39
-14 -163 -5 -193 14 -11 6 -49 22 -85 34 -84 29 -179 102 -180 138 0 20 -20
26 -20 6z"/>
<path d="M3023 1703 c-17 -6 -17 -23 0 -23 8 0 14 7 14 15 0 8 -1 15 -1 14 -1
0 -7 -3 -13 -6z"/>
<path d="M3055 1680 c-3 -5 -1 -10 4 -10 6 0 11 5 11 10 0 6 -2 10 -4 10 -3 0
-8 -4 -11 -10z"/>
<path d="M2978 1673 c7 -3 16 -2 19 1 4 3 -2 6 -13 5 -11 0 -14 -3 -6 -6z"/>
<path d="M5366 1533 c-25 -65 -50 -172 -42 -180 2 -2 11 29 21 69 9 40 26 95
37 122 10 27 17 51 14 53 -2 2 -15 -26 -30 -64z"/>
<path d="M1476 1582 c-3 -5 1 -9 9 -9 8 0 15 4 15 9 0 4 -4 8 -9 8 -6 0 -12
-4 -15 -8z"/>
<path d="M1402 1572 c-8 -6 -2 -9 17 -9 17 0 28 4 25 9 -7 10 -25 10 -42 0z"/>
<path d="M5302 1518 c-27 -88 -36 -148 -23 -148 6 0 11 15 11 34 0 19 9 64 21
101 11 37 18 69 15 72 -2 3 -13 -24 -24 -59z"/>
<path d="M1333 1563 c9 -2 25 -2 35 0 9 3 1 5 -18 5 -19 0 -27 -2 -17 -5z"/>
<path d="M5475 1485 c-15 -32 -28 -72 -31 -89 -3 -21 4 -11 21 29 14 33 30 70
37 82 6 13 8 26 5 30 -4 3 -18 -20 -32 -52z"/>
<path d="M5422 1496 c-6 -13 -13 -45 -16 -72 -5 -44 -4 -42 13 21 20 74 21 90
3 51z"/>
<path d="M5590 1466 c-27 -58 -38 -126 -21 -126 6 0 11 11 11 25 0 13 9 48 20
76 27 68 19 88 -10 25z"/>
<path d="M5720 1451 c0 -25 6 -27 13 -6 4 8 2 17 -3 20 -6 4 -10 -3 -10 -14z"/>
<path d="M3415 1447 c-21 -10 -23 -32 -16 -150 2 -27 21 -10 21 19 0 39 36 32
44 -9 3 -19 13 -42 20 -53 20 -27 37 -8 43 50 5 45 23 65 23 27 0 -31 21 -36
41 -10 l19 24 -3 -37 c-3 -55 17 -46 23 9 7 69 0 135 -14 130 -6 -2 -12 -13
-14 -25 -2 -11 -10 -26 -17 -32 -15 -13 -15 -13 -30 35 -8 25 -25 17 -31 -15
-9 -41 -28 -38 -55 10 -24 43 -24 43 -54 27z m22 -69 c-3 -7 -5 -2 -5 12 0 14
2 19 5 13 2 -7 2 -19 0 -25z m73 -59 c0 -34 -15 -38 -24 -6 -9 36 -7 47 9 41
9 -4 15 -19 15 -35z"/>
<path d="M4030 1441 c0 -6 -10 -11 -22 -11 -13 -1 3 -10 36 -21 55 -19 61 -19
92 -4 41 19 43 32 7 33 -16 1 -47 4 -70 8 -29 4 -43 2 -43 -5z"/>
<path d="M7618 1290 c-289 -3 -530 -9 -535 -13 -9 -10 1247 -6 1347 4 36 3 58
7 50 9 -27 5 -325 5 -862 0z"/>
<path d="M8135 1183 c-89 -7 -519 -35 -650 -42 -77 -4 -246 -8 -375 -10 -220
-2 -250 -4 -239 -16 12 -12 508 -6 724 8 457 31 757 55 762 61 6 6 -147 5
-222 -1z"/>
<path d="M7445 1090 c74 -8 311 -13 304 -6 -2 2 -87 6 -189 9 -112 3 -157 2
-115 -3z"/>
<path d="M7768 1078 c5 -5 16 -8 23 -6 8 3 3 7 -10 11 -17 4 -21 3 -13 -5z"/>
<path d="M7843 1073 c15 -2 39 -2 55 0 15 2 2 4 -28 4 -30 0 -43 -2 -27 -4z"/>
<path d="M7970 1059 c-77 -13 -912 -22 -1055 -11 -71 6 -134 7 -139 2 -8 -8
10 -13 108 -25 126 -17 1227 2 1257 21 38 23 -69 32 -171 13z"/>
<path d="M7485 993 c-16 -1 -165 -9 -330 -18 -165 -9 -316 -18 -335 -20 -19
-2 -81 -4 -137 -5 -71 0 -103 -4 -103 -11 0 -13 327 -6 526 11 60 5 224 14
364 21 140 6 262 15 270 20 13 8 -151 9 -255 2z"/>
<path d="M1189 870 c-24 -20 -24 -20 -4 -35 15 -12 34 -14 80 -9 120 13 136
23 35 23 -122 -1 -119 -2 -90 21 14 11 20 20 14 20 -7 0 -22 -9 -35 -20z"/>
<path d="M6832 807 c17 -13 119 -28 293 -43 115 -9 269 -34 279 -44 15 -15 58
-12 54 2 -7 20 -95 36 -342 63 -127 14 -246 27 -265 31 -32 5 -34 4 -19 -9z"/>
<path d="M6580 770 c0 -5 10 -12 23 -14 238 -49 563 -119 566 -122 3 -2 -56
-2 -130 1 -184 7 -151 -2 56 -15 94 -6 196 -13 228 -17 81 -8 74 12 -10 27
-38 6 -174 34 -303 61 -266 57 -420 89 -426 89 -2 0 -4 -4 -4 -10z"/>
<path d="M7103 723 c15 -2 39 -2 55 0 15 2 2 4 -28 4 -30 0 -43 -2 -27 -4z"/>
<path d="M7238 713 c6 -2 18 -2 25 0 6 3 1 5 -13 5 -14 0 -19 -2 -12 -5z"/>
<path d="M7318 713 c18 -2 45 -2 60 0 15 2 0 4 -33 4 -33 0 -45 -2 -27 -4z"/>
<path d="M6380 682 c0 -5 20 -15 44 -21 54 -13 59 -14 51 -2 -3 6 12 12 32 14
32 3 30 4 -13 5 -28 1 -66 5 -83 8 -18 4 -31 2 -31 -4z"/>
<path d="M6598 663 c6 -2 18 -2 25 0 6 3 1 5 -13 5 -14 0 -19 -2 -12 -5z"/>
<path d="M6658 653 c7 -3 16 -2 19 1 4 3 -2 6 -13 5 -11 0 -14 -3 -6 -6z"/>
<path d="M6728 653 c7 -3 16 -2 19 1 4 3 -2 6 -13 5 -11 0 -14 -3 -6 -6z"/>
<path d="M6500 640 c8 -5 24 -9 35 -9 l20 0 -20 9 c-11 5 -27 9 -35 9 -13 1
-13 0 0 -9z"/>
<path d="M6785 645 c26 -9 105 -12 105 -4 0 5 -26 9 -57 8 -32 0 -53 -2 -48
-4z"/>
<path d="M6562 624 c3 -3 52 -18 108 -33 56 -16 98 -25 92 -19 -5 5 -49 20
-98 34 -90 24 -112 28 -102 18z"/>
<path d="M6928 523 c7 -3 16 -2 19 1 4 3 -2 6 -13 5 -11 0 -14 -3 -6 -6z"/>
</g>
</svg>
